<svg id="Iconly_Bulk_Message" data-name="Iconly/Bulk/Message" xmlns="http://www.w3.org/2000/svg" width="18" height="18" viewBox="0 0 18 18">
  <g id="Group" transform="translate(1.5 2.25)">
    <path id="Fill_1" data-name="Fill 1" d="M15,5.357a3.785,3.785,0,0,1-3.773,3.8H3.788A3.785,3.785,0,0,1,0,5.372V5.365S0,2.045.011.376A.374.374,0,0,1,.617.082C2.4,1.5,5.585,4.073,5.625,4.107a3.05,3.05,0,0,0,1.9.667A3.01,3.01,0,0,0,9.42,4.1c.04-.026,3.155-2.527,4.964-3.964a.375.375,0,0,1,.608.292C15,2.084,15,5.357,15,5.357" transform="translate(0 4.348)" fill="#026936" opacity="0.4"/>
    <path id="Fill_4" data-name="Fill 4" d="M14.23,2.006A3.776,3.776,0,0,0,10.9,0H3.41A3.776,3.776,0,0,0,.076,2.006a.648.648,0,0,0,.166.809L5.81,7.268a2.12,2.12,0,0,0,1.335.472H7.16A2.12,2.12,0,0,0,8.5,7.268l5.569-4.454a.648.648,0,0,0,.166-.809" transform="translate(0.377)" fill="#026936"/>
  </g>
</svg>
