<svg id="Iconly_Bulk_Home" data-name="Iconly/Bulk/Home" xmlns="http://www.w3.org/2000/svg" width="20" height="20" viewBox="0 0 20 20">
  <g id="Home" transform="translate(2.083 1.667)">
    <path id="Home-2" data-name="Home" d="M5.536,15.652V13.1a1.182,1.182,0,0,1,1.179-1.178h2.4A1.182,1.182,0,0,1,10.3,13.1h0v2.548a1.026,1.026,0,0,0,1.022,1.022h1.634a2.883,2.883,0,0,0,2.036-.833,2.842,2.842,0,0,0,.844-2.019V6.555a2.061,2.061,0,0,0-.746-1.585L9.536.562a2.6,2.6,0,0,0-3.3.059L.806,4.97A2.062,2.062,0,0,0,0,6.555v7.252a2.87,2.87,0,0,0,2.88,2.859h1.6a1.026,1.026,0,0,0,.728-.295,1.011,1.011,0,0,0,.3-.72Z" transform="translate(0 0)" fill="#026936"/>
  </g>
</svg>
