<svg id="Iconly_Bulk_Graph" data-name="Iconly/Bulk/Graph" xmlns="http://www.w3.org/2000/svg" width="20" height="20" viewBox="0 0 20 20">
  <g id="Graph" transform="translate(1.667 1.667)">
    <path id="Path" d="M6.794.537a.884.884,0,0,1,.083.274l.232,3.45h0l.115,1.734a1.783,1.783,0,0,0,.083.526.869.869,0,0,0,.838.526l5.548-.363a.915.915,0,0,1,.645.25.883.883,0,0,1,.266.507l.01.117a7.235,7.235,0,0,1-5.737,6.515A7.38,7.38,0,0,1,.884,10.52,6.845,6.845,0,0,1,.054,7.9,5.015,5.015,0,0,1,0,7.076,7.246,7.246,0,0,1,5.82.011.909.909,0,0,1,6.794.537Z" transform="translate(0 2.426)" fill="#757575"/>
    <path id="Path-2" data-name="Path" d="M.708,0A7.87,7.87,0,0,1,8.316,6.51l-.006.027h0l-.017.039,0,.108a.667.667,0,0,1-.16.393.689.689,0,0,1-.385.226l-.091.013-6.4.415a.764.764,0,0,1-.583-.189A.736.736,0,0,1,.435,7.1L.006.7a.1.1,0,0,1,0-.067A.654.654,0,0,1,.221.175.679.679,0,0,1,.708,0Z" transform="translate(8.351 0)" fill="#757575" opacity="0.4"/>
  </g>
</svg>
