<svg xmlns="http://www.w3.org/2000/svg" width="10.208" height="16" viewBox="0 0 10.208 16">
  <path id="Path_19" data-name="Path 19" d="M18.565.757A.744.744,0,0,0,17.817,0H9.09a.732.732,0,0,0-.733.757V16h3.33V13.482a.432.432,0,0,1,.426-.45h2.693a.434.434,0,0,1,.429.45V16h3.329V.757Zm-5.72,10.059a.261.261,0,0,1-.262.262H11.007a.262.262,0,0,1-.262-.262V9.239a.262.262,0,0,1,.262-.262h1.576a.262.262,0,0,1,.262.262Zm0-3.476a.261.261,0,0,1-.262.262H11.007a.262.262,0,0,1-.262-.262V5.764a.262.262,0,0,1,.262-.262h1.576a.261.261,0,0,1,.262.262Zm0-3.547a.261.261,0,0,1-.262.262H11.007a.262.262,0,0,1-.262-.262V2.216a.262.262,0,0,1,.262-.262h1.576a.261.261,0,0,1,.262.262Zm3.331,7.023a.262.262,0,0,1-.262.262H14.337a.261.261,0,0,1-.262-.262V9.239a.262.262,0,0,1,.262-.262h1.576a.262.262,0,0,1,.262.262Zm0-3.476a.262.262,0,0,1-.262.262H14.337a.261.261,0,0,1-.262-.262V5.764a.261.261,0,0,1,.262-.262h1.576a.262.262,0,0,1,.262.262Zm0-3.547a.262.262,0,0,1-.262.262H14.337a.261.261,0,0,1-.262-.262V2.216a.261.261,0,0,1,.262-.262h1.576a.262.262,0,0,1,.262.262Z" transform="translate(-8.357)" fill="#757575"/>
</svg>
