<svg xmlns="http://www.w3.org/2000/svg" width="15.59" height="15.538" viewBox="0 0 15.59 15.538">
  <path id="assembly-area" d="M15.59,12.655a.793.793,0,0,1-.793.793h-1.92v1.8a.793.793,0,0,1-1.585,0v-1.8H4.21v1.8a.793.793,0,0,1-1.585,0v-1.8H.846a.793.793,0,1,1,0-1.585H2.625V4.781H.793a.793.793,0,0,1,0-1.585H2.625v-1.9a.793.793,0,1,1,1.585,0v1.85h7.082V1.293a.793.793,0,1,1,1.585,0V3.2h1.867a.793.793,0,1,1,0,1.585H12.93v7.082H14.8A.793.793,0,0,1,15.59,12.655Z" transform="translate(0 -0.5)" fill="#717171"/>
</svg>
