<svg xmlns="http://www.w3.org/2000/svg" width="39.999" height="35.145" viewBox="0 0 39.999 35.145">
  <g id="balcony" transform="translate(0 -31.069)">
    <g id="Group_807" data-name="Group 807" transform="translate(9.459 42.971)">
      <g id="Group_806" data-name="Group 806">
        <rect id="Rectangle_88" data-name="Rectangle 88" width="8.919" height="7.027" fill="#026936" opacity="0.4"/>
      </g>
    </g>
    <g id="Group_809" data-name="Group 809" transform="translate(9.606 31.069)">
      <g id="Group_808" data-name="Group 808" transform="translate(0 0)">
        <path id="Path_171" data-name="Path 171" d="M122.964,39.728h8.772V31.069A10.566,10.566,0,0,0,122.964,39.728Z" transform="translate(-122.964 -31.069)" fill="#026936" opacity="0.4"/>
      </g>
    </g>
    <g id="Group_811" data-name="Group 811" transform="translate(21.621 31.069)">
      <g id="Group_810" data-name="Group 810" transform="translate(0 0)">
        <path id="Path_172" data-name="Path 172" d="M276.757,31.069v8.659h8.772A10.566,10.566,0,0,0,276.757,31.069Z" transform="translate(-276.757 -31.069)" fill="#026936" opacity="0.4"/>
      </g>
    </g>
    <g id="Group_813" data-name="Group 813" transform="translate(21.621 42.971)">
      <g id="Group_812" data-name="Group 812">
        <rect id="Rectangle_89" data-name="Rectangle 89" width="8.919" height="7.027" fill="#026936" opacity="0.4"/>
      </g>
    </g>
    <g id="Group_815" data-name="Group 815" transform="translate(0 53.241)">
      <g id="Group_814" data-name="Group 814">
        <path id="Path_173" data-name="Path 173" d="M38.377,314.877H1.622a1.622,1.622,0,0,0,0,3.243h.541v8.108a1.622,1.622,0,0,0,1.622,1.622H36.215a1.622,1.622,0,0,0,1.622-1.622V318.12h.541a1.622,1.622,0,1,0,0-3.243ZM8.648,319.336v5.27H5.405V318.12H8.648v1.216Zm6.486,0v5.27H11.892V318.12h3.243Zm6.486,0v5.27H18.378V318.12h3.243Zm6.486,0v5.27H24.864V318.12h3.243Zm6.486,5.27H31.35V318.12h3.243v6.486Z" transform="translate(0 -314.877)" fill="#026936"/>
      </g>
    </g>
  </g>
</svg>
