<svg xmlns="http://www.w3.org/2000/svg" width="56.134" height="51.836" viewBox="0 0 56.134 51.836">
  <g id="building-land" transform="translate(0 -10.91)">
    <g id="Group_696" data-name="Group 696" transform="translate(0 10.91)">
      <path id="Path_74" data-name="Path 74" d="M56.082,185.493,50.74,166.852a1.338,1.338,0,0,0-1.285-.967H47.186v9.551a4.013,4.013,0,0,1-4.008,4.008h-30.2a4.012,4.012,0,0,1-4.008-4.008l-.023.033c0-.011,0-.021,0-.033v-9.551H6.679a1.338,1.338,0,0,0-1.285.967L.052,185.493a1.335,1.335,0,0,0,1.283,1.7H54.8a1.335,1.335,0,0,0,1.283-1.7Z" transform="translate(0 -135.361)" fill="#9ac3af"/>
      <path id="Path_75" data-name="Path 75" d="M33.825,31.664,52.559,15.557,71.292,31.664A2,2,0,1,0,73.9,28.626L53.865,11.395a2,2,0,0,0-2.613,0L31.212,28.626a2,2,0,1,0,2.613,3.038Z" transform="translate(-24.504 -10.91)" fill="#9ac3af"/>
      <path id="Path_76" data-name="Path 76" d="M74.558,46.144l-15.1,13.028A1.347,1.347,0,0,0,59,60.185V79.02a1.335,1.335,0,0,0,1.335,1.335h30.2a1.335,1.335,0,0,0,1.338-1.335V60.185a1.337,1.337,0,0,0-.465-1.012L76.3,46.144A1.338,1.338,0,0,0,74.558,46.144Zm-.464,28.3a1.336,1.336,0,0,1-1.335,1.336H68.083a1.337,1.337,0,0,1-1.338-1.336v-4.68a1.336,1.336,0,0,1,1.338-1.336h4.675a1.336,1.336,0,0,1,1.335,1.336Zm0-10.024a1.336,1.336,0,0,1-1.335,1.336H68.083a1.336,1.336,0,0,1-1.338-1.336v-4.68a1.336,1.336,0,0,1,1.338-1.336h4.675a1.336,1.336,0,0,1,1.335,1.336Zm2.673-4.68A1.336,1.336,0,0,1,78.1,58.407h4.674a1.336,1.336,0,0,1,1.335,1.336v4.68a1.336,1.336,0,0,1-1.335,1.336H78.1a1.336,1.336,0,0,1-1.338-1.336Zm0,10.023A1.335,1.335,0,0,1,78.1,68.431h4.674a1.336,1.336,0,0,1,1.335,1.336v4.68a1.336,1.336,0,0,1-1.335,1.336H78.1a1.336,1.336,0,0,1-1.338-1.336Z" transform="translate(-47.376 -38.944)" fill="#026936"/>
    </g>
  </g>
</svg>
