<svg xmlns="http://www.w3.org/2000/svg" width="46" height="40.392" viewBox="0 0 46 40.392">
  <g id="customer" transform="translate(0 -32.237)">
    <ellipse id="Ellipse_18" data-name="Ellipse 18" cx="7.775" cy="8.099" rx="7.775" ry="8.099" transform="translate(15.225 32.237)" fill="#026936"/>
    <ellipse id="Ellipse_19" data-name="Ellipse 19" cx="4.859" cy="5.183" rx="4.859" ry="5.183" transform="translate(34.014 38.068)" fill="#026936" opacity="0.4"/>
    <ellipse id="Ellipse_20" data-name="Ellipse 20" cx="4.859" cy="5.183" rx="4.859" ry="5.183" transform="translate(2.268 38.068)" fill="#026936" opacity="0.4"/>
    <path id="Path_213" data-name="Path 213" d="M12.056,241.92c-1.945-1.594-3.707-1.383-5.956-1.383A6.089,6.089,0,0,0,0,246.6v9.812a2.64,2.64,0,0,0,2.642,2.632c6.291,0,5.533.114,5.533-.271C8.176,251.821,7.352,246.722,12.056,241.92Z" transform="translate(0 -189.358)" fill="#026936" opacity="0.4"/>
    <path id="Path_214" data-name="Path 214" d="M134.526,239.956c-3.928-.328-7.343,0-10.288,2.435-4.929,3.948-3.98,9.263-3.98,15.766A3.152,3.152,0,0,0,123.4,261.3c18.964,0,19.719.612,20.844-1.879.369-.842.268-.575.268-8.631,0-6.4-5.541-10.837-9.99-10.837Z" transform="translate(-109.387 -188.74)" fill="#026936"/>
    <path id="Path_215" data-name="Path 215" d="M383.766,240.539c-2.261,0-4.013-.209-5.956,1.383,4.669,4.767,3.88,9.518,3.88,16.854,0,.388-.629.271,5.439.271a2.734,2.734,0,0,0,2.737-2.726V246.6A6.089,6.089,0,0,0,383.766,240.539Z" transform="translate(-343.866 -189.359)" fill="#026936" opacity="0.4"/>
  </g>
</svg>
