<svg id="drain" xmlns="http://www.w3.org/2000/svg" width="40" height="40" viewBox="0 0 40 40">
  <path id="Path_108" data-name="Path 108" d="M240.2,367.4a1.333,1.333,0,1,0,1.334,1.333A1.335,1.335,0,0,0,240.2,367.4Z" transform="translate(-220.2 -338.689)" fill="#026936"/>
  <path id="Path_109" data-name="Path 109" d="M240.2,113a1.333,1.333,0,1,0-1.333-1.333A1.335,1.335,0,0,0,240.2,113Z" transform="translate(-220.2 -101.712)" fill="#026936"/>
  <path id="Path_110" data-name="Path 110" d="M351.513,303.133a1.333,1.333,0,1,0,1.333,1.333A1.335,1.335,0,0,0,351.513,303.133Z" transform="translate(-322.814 -279.444)" fill="#026936"/>
  <path id="Path_111" data-name="Path 111" d="M240.2,238.867a1.333,1.333,0,1,0,1.334,1.333A1.335,1.335,0,0,0,240.2,238.867Z" transform="translate(-220.2 -220.2)" fill="#026936"/>
  <ellipse id="Ellipse_8" data-name="Ellipse 8" cx="1.333" cy="1.333" rx="1.333" ry="1.333" transform="translate(9.968 23.689)" fill="#026936"/>
  <ellipse id="Ellipse_9" data-name="Ellipse 9" cx="1.333" cy="1.333" rx="1.333" ry="1.333" transform="translate(9.968 13.644)" fill="#026936"/>
  <path id="Path_112" data-name="Path 112" d="M20,0A20,20,0,1,0,40,20,20.023,20.023,0,0,0,20,0Zm0,33.724A13.724,13.724,0,1,1,33.724,20,13.74,13.74,0,0,1,20,33.724Z" fill="#026936" opacity="0.4"/>
  <path id="Path_113" data-name="Path 113" d="M351.513,174.6a1.333,1.333,0,1,0,1.333,1.333A1.335,1.335,0,0,0,351.513,174.6Z" transform="translate(-322.814 -160.956)" fill="#026936"/>
  <path id="Path_114" data-name="Path 114" d="M126.776,123.619a3.7,3.7,0,0,1,2.533-3.506,11.415,11.415,0,0,0-3.947-2.286,3.693,3.693,0,1,1-7.23,0,11.416,11.416,0,0,0-3.947,2.286,3.693,3.693,0,1,1-3.621,6.257,11.476,11.476,0,0,0,0,4.572,3.692,3.692,0,1,1,3.621,6.257,11.415,11.415,0,0,0,3.947,2.286,3.693,3.693,0,1,1,7.23,0,11.416,11.416,0,0,0,3.947-2.286,3.693,3.693,0,1,1,3.621-6.257,11.476,11.476,0,0,0,0-4.572,3.69,3.69,0,0,1-6.154-2.751Zm-5.028,8.731a3.694,3.694,0,1,1,3.693-3.694A3.7,3.7,0,0,1,121.747,132.35Z" transform="translate(-101.747 -108.656)" fill="#026936"/>
</svg>
