<svg id="faucet" xmlns="http://www.w3.org/2000/svg" width="40" height="40" viewBox="0 0 40 40">
  <g id="Group_797" data-name="Group 797" transform="translate(0 7.109)">
    <g id="Group_796" data-name="Group 796">
      <path id="Path_115" data-name="Path 115" d="M1.172,91A1.172,1.172,0,0,0,0,92.172v23.516a1.172,1.172,0,0,0,1.172,1.172,3.516,3.516,0,0,0,3.516-3.516V94.516A3.516,3.516,0,0,0,1.172,91Z" transform="translate(0 -91)" fill="#026936" opacity="0.4"/>
    </g>
  </g>
  <g id="Group_799" data-name="Group 799" transform="translate(30.625 28.281)">
    <g id="Group_798" data-name="Group 798">
      <path id="Path_116" data-name="Path 116" d="M392,362v2.344a1.172,1.172,0,0,0,1.172,1.172H400.2a1.172,1.172,0,0,0,1.172-1.172V362Z" transform="translate(-392 -362)" fill="#026936" opacity="0.4"/>
    </g>
  </g>
  <g id="Group_801" data-name="Group 801" transform="translate(7.031)">
    <g id="Group_800" data-name="Group 800">
      <path id="Path_117" data-name="Path 117" d="M113.594,15.391h-5.419a7,7,0,0,0-2.863-1.913V7.031h3.219a3.767,3.767,0,0,0,2.64,1.172,3.516,3.516,0,1,0,0-7.031,3.763,3.763,0,0,0-2.64,1.172h-3.075l-.277-.78a2.345,2.345,0,0,0-4.422,0l-.277.78H97.406a3.768,3.768,0,0,0-2.64-1.172,3.516,3.516,0,0,0,0,7.031,3.763,3.763,0,0,0,2.64-1.172h3.219v6.446a7,7,0,0,0-2.863,1.913H90v9.375h7.762a6.955,6.955,0,0,0,10.413,0h3.075a2.31,2.31,0,0,1,1.985,1.172h9.734V24.766A9.375,9.375,0,0,0,113.594,15.391Z" transform="translate(-90)" fill="#026936"/>
    </g>
  </g>
  <g id="Group_803" data-name="Group 803" transform="translate(32.969 34.153)">
    <g id="Group_802" data-name="Group 802">
      <path id="Path_118" data-name="Path 118" d="M426.506,439.757l-1.147-2.006a1.17,1.17,0,0,0-1.016-.591h0a1.172,1.172,0,0,0-1.016.588l-1.147,2.014a2.373,2.373,0,0,0-.178.9,2.344,2.344,0,0,0,4.688,0A1.921,1.921,0,0,0,426.506,439.757Z" transform="translate(-422 -437.16)" fill="#026936"/>
    </g>
  </g>
</svg>
