<svg id="Filter" xmlns="http://www.w3.org/2000/svg" width="19.834" height="17.63" viewBox="0 0 19.834 17.63">
  <path id="Fill_1" data-name="Fill 1" d="M8.016,0H1.5A1.483,1.483,0,0,0,0,1.469,1.484,1.484,0,0,0,1.5,2.938H8.016a1.484,1.484,0,0,0,1.5-1.469A1.483,1.483,0,0,0,8.016,0" transform="translate(0 12.85)" fill="#026936" opacity="0.4"/>
  <path id="Fill_4" data-name="Fill 4" d="M9.51,1.468A1.482,1.482,0,0,0,8.016,0H1.5A1.483,1.483,0,0,0,0,1.468,1.483,1.483,0,0,0,1.5,2.937H8.016A1.483,1.483,0,0,0,9.51,1.468" transform="translate(10.324 1.883)" fill="#026936" opacity="0.4"/>
  <path id="Fill_6" data-name="Fill 6" d="M6.821,3.351A3.381,3.381,0,0,1,3.41,6.7,3.381,3.381,0,0,1,0,3.351,3.381,3.381,0,0,1,3.41,0a3.381,3.381,0,0,1,3.41,3.351" transform="translate(0 0)" fill="#026936"/>
  <path id="Fill_9" data-name="Fill 9" d="M6.821,3.352A3.381,3.381,0,0,1,3.41,6.7,3.381,3.381,0,0,1,0,3.352,3.381,3.381,0,0,1,3.41,0a3.381,3.381,0,0,1,3.41,3.352" transform="translate(13.013 10.928)" fill="#026936"/>
</svg>
