<svg xmlns="http://www.w3.org/2000/svg" width="40" height="35.547" viewBox="0 0 40 35.547">
  <path id="firewall" d="M1.278,20.041A1.279,1.279,0,0,1,0,18.764V14.349a1.279,1.279,0,0,1,1.278-1.278H17.445a1.279,1.279,0,0,1,1.278,1.278v4.415a1.279,1.279,0,0,1-1.278,1.278Zm37.445,0A1.279,1.279,0,0,0,40,18.764V14.349a1.279,1.279,0,0,0-1.278-1.278H22.555a1.279,1.279,0,0,0-1.278,1.278v4.415a1.279,1.279,0,0,0,1.278,1.278ZM28.083,29.567a1.279,1.279,0,0,0,1.278-1.278V23.874A1.279,1.279,0,0,0,28.083,22.6H11.916a1.279,1.279,0,0,0-1.278,1.278v4.415a1.279,1.279,0,0,0,1.278,1.278H28.083Zm-21.278,0a1.279,1.279,0,0,0,1.278-1.278V23.874A1.279,1.279,0,0,0,6.806,22.6H1.371A1.279,1.279,0,0,0,.093,23.874v4.415a1.279,1.279,0,0,0,1.278,1.278H6.806Zm31.823,0a1.279,1.279,0,0,0,1.278-1.278V23.874A1.279,1.279,0,0,0,38.629,22.6H33.194a1.279,1.279,0,0,0-1.278,1.278v4.415a1.279,1.279,0,0,0,1.278,1.278h5.435ZM17.445,39.092a1.279,1.279,0,0,0,1.278-1.278V33.4a1.279,1.279,0,0,0-1.278-1.278H1.278A1.279,1.279,0,0,0,0,33.4v4.415a1.279,1.279,0,0,0,1.278,1.278H17.445Zm21.278,0A1.279,1.279,0,0,0,40,37.815V33.4a1.279,1.279,0,0,0-1.278-1.278H22.555A1.279,1.279,0,0,0,21.278,33.4v4.415a1.279,1.279,0,0,0,1.278,1.278H38.722ZM28.083,48.618a1.279,1.279,0,0,0,1.278-1.278V42.925a1.279,1.279,0,0,0-1.278-1.278H11.916a1.279,1.279,0,0,0-1.278,1.278V47.34a1.279,1.279,0,0,0,1.278,1.278Zm-21.278,0A1.279,1.279,0,0,0,8.084,47.34V42.925a1.279,1.279,0,0,0-1.278-1.278H1.371A1.279,1.279,0,0,0,.093,42.925V47.34a1.279,1.279,0,0,0,1.278,1.278Zm31.823,0a1.279,1.279,0,0,0,1.278-1.278V42.925a1.279,1.279,0,0,0-1.278-1.278H33.194a1.279,1.279,0,0,0-1.278,1.278V47.34a1.279,1.279,0,0,0,1.278,1.278Z" transform="translate(0 -13.071)" fill="#026936"/>
</svg>
