<svg id="Graph" xmlns="http://www.w3.org/2000/svg" width="41.667" height="41.667" viewBox="0 0 41.667 41.667">
  <path id="Path" d="M16.985,1.342a2.209,2.209,0,0,1,.208.685l.58,8.625h0l.288,4.335a4.457,4.457,0,0,0,.208,1.314,2.173,2.173,0,0,0,2.095,1.315l13.869-.907a2.288,2.288,0,0,1,1.612.624A2.208,2.208,0,0,1,36.51,18.6l.025.292A18.088,18.088,0,0,1,22.192,35.181,18.451,18.451,0,0,1,2.21,26.3,17.113,17.113,0,0,1,.134,19.745,12.538,12.538,0,0,1,0,17.69,18.116,18.116,0,0,1,14.551.028,2.273,2.273,0,0,1,16.985,1.342Z" transform="translate(0 6.065)" fill="#026936"/>
  <path id="Path-2" data-name="Path" d="M1.769,0A19.675,19.675,0,0,1,20.79,16.276l-.015.068h0l-.042.1.006.271a1.667,1.667,0,0,1-.4.984,1.724,1.724,0,0,1-.963.565l-.228.031-16,1.037a1.91,1.91,0,0,1-1.458-.472,1.841,1.841,0,0,1-.6-1.119L.014,1.761a.255.255,0,0,1,0-.167A1.635,1.635,0,0,1,.552.438,1.7,1.7,0,0,1,1.769,0Z" transform="translate(20.877)" fill="#026936" opacity="0.4"/>
</svg>
