<svg xmlns="http://www.w3.org/2000/svg" width="36.812" height="40" viewBox="0 0 36.812 40">
  <g id="Group_805" data-name="Group 805" transform="translate(0 0)">
    <path id="Path_123" data-name="Path 123" d="M38.779.32a.745.745,0,0,0-.932-.247A34.148,34.148,0,0,0,23,14.141a42.371,42.371,0,0,1,6.18,15.872c.159-6.621,1.472-20.894,9.507-28.734A.746.746,0,0,0,38.779.32Z" transform="translate(-4.836 0)" fill="#026936" opacity="0.4"/>
    <path id="Path_124" data-name="Path 124" d="M9.509,6.886a.742.742,0,0,0-.408-.12A.752.752,0,0,0,8.551,7a.732.732,0,0,0-.039.953c8.1,10.255,5.857,27.955,5.207,32.03a.733.733,0,0,0,.169.6.755.755,0,0,0,.567.259H24.884a.748.748,0,0,0,.531-.219.732.732,0,0,0,.215-.527C25.389,20.162,15.486,10.756,9.509,6.886Z" transform="translate(-2.753 -0.841)" fill="#026936"/>
    <path id="Path_125" data-name="Path 125" d="M2.386,27.546a.354.354,0,0,0-.473.513c3.842,4.919,2.778,13.409,2.469,15.363a.341.341,0,0,0,.08.278.348.348,0,0,0,.27.116H9.675a.349.349,0,0,0,.251-.1.344.344,0,0,0,.1-.249C9.915,33.909,5.221,29.4,2.386,27.546Z" transform="translate(-1.838 -3.816)" fill="#026936" opacity="0.4"/>
    <path id="Path_126" data-name="Path 126" d="M42.561,20.568a.488.488,0,0,0-.627-.078c-3.908,2.56-10.381,8.782-10.54,21.969a.474.474,0,0,0,.489.476H38.7a.479.479,0,0,0,.371-.164.487.487,0,0,0,.11-.388c-.425-2.7-1.892-14.4,3.406-21.188A.484.484,0,0,0,42.561,20.568Z" transform="translate(-5.879 -2.936)" fill="#026936"/>
  </g>
</svg>
