<svg xmlns="http://www.w3.org/2000/svg" width="16" height="16" viewBox="0 0 16 16">
  <g id="Group_47" data-name="Group 47" transform="translate(15.5 -4)">
    <g id="Iconly_Bulk_Delete" data-name="Iconly/Bulk/Delete" transform="translate(-15.5 4)">
      <g id="Delete" transform="translate(2 1.333)">
        <path id="Fill_1" data-name="Fill 1" d="M10.193.528c0,.045-.355,4.539-.558,6.43a1.945,1.945,0,0,1-2,1.885c-.862.019-1.707.026-2.537.026-.882,0-1.744-.007-2.581-.026A1.945,1.945,0,0,1,.565,6.958C.356,5.06.007.573,0,.528A.529.529,0,0,1,.128.156.473.473,0,0,1,.477,0H9.724a.487.487,0,0,1,.349.156.5.5,0,0,1,.121.372" transform="translate(0.903 4.464)" fill="#757575" opacity="0.4"/>
        <path id="Fill_4" data-name="Fill 4" d="M12,2.651a.481.481,0,0,0-.475-.489H9.581a.854.854,0,0,1-.827-.678L8.645,1A1.323,1.323,0,0,0,7.376,0H4.624A1.325,1.325,0,0,0,3.349,1.031l-.1.455a.855.855,0,0,1-.827.677H.476A.482.482,0,0,0,0,2.651V2.9a.486.486,0,0,0,.476.489H11.525A.486.486,0,0,0,12,2.9Z" transform="translate(0 0)" fill="#757575"/>
      </g>
    </g>
  </g>
</svg>
