<svg xmlns="http://www.w3.org/2000/svg" width="18" height="18" viewBox="0 0 18 18">
  <g id="Group_2092" data-name="Group 2092" transform="translate(-745.563 -899.563)">
    <g id="Iconly_Bulk_Work" data-name="Iconly/Bulk/Work" transform="translate(745.563 899.563)">
      <g id="Work" transform="translate(1.435 1.435)">
        <path id="Fill_1" data-name="Fill 1" d="M0,0C.036,1.677.136,4.545.151,4.861A3.335,3.335,0,0,0,.863,6.7a2.646,2.646,0,0,0,2.215.978c1.331.007,2.8.007,4.224.007s2.819,0,3.992-.007A2.677,2.677,0,0,0,13.509,6.7a3.238,3.238,0,0,0,.7-1.842c.014-.266.086-3.379.129-4.861Z" transform="translate(0 6.511)" fill="#757575" opacity="0.4"/>
        <path id="Fill_4" data-name="Fill 4" d="M0,.538v.928a.538.538,0,0,0,1.076,0V.538A.538.538,0,0,0,0,.538" transform="translate(6.631 9.061)" fill="#757575"/>
        <path id="Fill_6" data-name="Fill 6" d="M8.946,9.407A.537.537,0,0,1,8.424,9a1.293,1.293,0,0,0-1.259-.971A1.31,1.31,0,0,0,5.889,9a.541.541,0,0,1-.521.4.562.562,0,0,1-.073,0A12.306,12.306,0,0,1,.241,7.517.536.536,0,0,1,0,7.068V4.582A2.737,2.737,0,0,1,2.737,1.851H4.148A2.122,2.122,0,0,1,6.242,0H8.094a2.121,2.121,0,0,1,2.094,1.851h1.418a2.734,2.734,0,0,1,2.73,2.731V7.068a.54.54,0,0,1-.241.449A12.3,12.3,0,0,1,9.019,9.4.574.574,0,0,1,8.946,9.407Zm-2.7-8.331a1.047,1.047,0,0,0-1.006.775H9.1a1.047,1.047,0,0,0-1.006-.775Z" transform="translate(0)" fill="#757575"/>
      </g>
    </g>
  </g>
</svg>
