<svg xmlns="http://www.w3.org/2000/svg" width="24" height="22.896" viewBox="0 0 24 22.896">
  <g id="Group_641" data-name="Group 641" transform="translate(-791.671 -1096.79)">
    <ellipse id="Ellipse_4" data-name="Ellipse 4" cx="9.835" cy="9.843" rx="9.835" ry="9.843" transform="translate(794 1098)" fill="#fff"/>
    <g id="verify" transform="translate(791.671 1096.79)">
      <g id="Group_639" data-name="Group 639" transform="translate(0 0)">
        <path id="Path_73" data-name="Path 73" d="M1.614,26.866c.382.318.7.717.666.988a4.48,4.48,0,0,0-.028.495A4.407,4.407,0,0,0,6.6,32.816a4.244,4.244,0,0,0,.865-.089,1.5,1.5,0,0,1,1.36.461,4.258,4.258,0,0,0,6.491-.15,1.27,1.27,0,0,1,1.329-.4,4.219,4.219,0,0,0,1.213.177A4.407,4.407,0,0,0,22.2,28.349a4.493,4.493,0,0,0-.073-.807,1.6,1.6,0,0,1,.493-1.336,4.54,4.54,0,0,0-.232-6.732c-.382-.318-.7-.717-.666-.989a4.467,4.467,0,0,0,.028-.494A4.407,4.407,0,0,0,17.4,13.523a4.247,4.247,0,0,0-.865.089,1.5,1.5,0,0,1-1.361-.461,4.25,4.25,0,0,0-6.357,0,1.5,1.5,0,0,1-1.36.461,4.247,4.247,0,0,0-.865-.089,4.407,4.407,0,0,0-4.344,4.467,4.52,4.52,0,0,0,.054.7,1.387,1.387,0,0,1-.6,1.162,4.537,4.537,0,0,0-.092,7.014Zm4.578-3.309c.1-.171.342-.173.567.023l2.266,1.6a.683.683,0,0,0,.353.113.953.953,0,0,0,.6-.331L17.229,17.7c.453-.493.894-.667,1.182-.478a.537.537,0,0,1,.242.371.7.7,0,0,1-.177.546L9.755,28.731a.6.6,0,0,1-.453.238.57.57,0,0,1-.49-.325L6.253,24.031A.483.483,0,0,1,6.192,23.557Z" transform="translate(0 -11.722)" fill="#026936"/>
      </g>
    </g>
  </g>
</svg>
