<svg xmlns="http://www.w3.org/2000/svg" width="18" height="16.907" viewBox="0 0 18 16.907">
  <g id="Group_838" data-name="Group 838" transform="translate(-191.876 -1237.164)">
    <path id="Path_75" data-name="Path 75" d="M31.866,19.365,39.515,12.8l7.649,6.562a.817.817,0,1,0,1.066-1.238l-8.181-7.019a.819.819,0,0,0-1.067,0L30.8,18.127a.817.817,0,1,0,1.067,1.238Z" transform="translate(161.362 1226.253)" fill="#4d4d4d" opacity="0.4"/>
    <path id="Path_76" data-name="Path 76" d="M65.354,45.952l-6.17,5.307a.548.548,0,0,0-.189.412v7.673a.545.545,0,0,0,.546.544H71.88a.545.545,0,0,0,.547-.544V51.672a.544.544,0,0,0-.19-.412l-6.169-5.307A.548.548,0,0,0,65.354,45.952Zm-.19,11.53a.545.545,0,0,1-.546.544h-1.91a.545.545,0,0,1-.547-.544V55.576a.545.545,0,0,1,.547-.544h1.91a.545.545,0,0,1,.546.544Zm0-4.084a.545.545,0,0,1-.546.544h-1.91a.545.545,0,0,1-.547-.544V51.492a.545.545,0,0,1,.547-.544h1.91a.545.545,0,0,1,.546.544Zm1.092-1.906a.545.545,0,0,1,.547-.544h1.91a.545.545,0,0,1,.545.544V53.4a.545.545,0,0,1-.545.544H66.8a.545.545,0,0,1-.547-.544Zm0,4.083a.545.545,0,0,1,.547-.544h1.91a.545.545,0,0,1,.545.544v1.907a.545.545,0,0,1-.545.544H66.8a.545.545,0,0,1-.547-.544Z" transform="translate(135.165 1194.182)" fill="#4d4d4d"/>
  </g>
</svg>
