<svg xmlns="http://www.w3.org/2000/svg" width="50" height="50" viewBox="0 0 50 50">
  <g id="Group_51" data-name="Group 51" transform="translate(-746 -900)">
    <g id="Iconly_Bulk_Work" data-name="Iconly/Bulk/Work" transform="translate(746 900)">
      <g id="Work" transform="translate(4.167 4.168)">
        <path id="Fill_1" data-name="Fill 1" d="M0,0C.1,4.871.4,13.2.438,14.121a9.689,9.689,0,0,0,2.071,5.35,7.685,7.685,0,0,0,6.433,2.842c3.867.021,8.129.021,12.269.021,4.156,0,8.19,0,11.6-.021a7.777,7.777,0,0,0,6.435-2.842,9.4,9.4,0,0,0,2.029-5.35c.042-.773.25-9.817.375-14.121Z" transform="translate(0 18.913)" fill="#026936" opacity="0.4"/>
        <path id="Fill_4" data-name="Fill 4" d="M0,1.563v2.7a1.563,1.563,0,0,0,3.125,0v-2.7A1.563,1.563,0,0,0,0,1.563" transform="translate(19.261 26.32)" fill="#026936"/>
        <path id="Fill_6" data-name="Fill 6" d="M25.986,27.326a1.561,1.561,0,0,1-1.515-1.176,3.756,3.756,0,0,0-3.658-2.82,3.8,3.8,0,0,0-3.707,2.827,1.572,1.572,0,0,1-1.512,1.15,1.632,1.632,0,0,1-.211-.014A35.747,35.747,0,0,1,.7,21.836a1.557,1.557,0,0,1-.7-1.3V13.311A7.952,7.952,0,0,1,7.952,5.378h4.1A6.165,6.165,0,0,1,18.133,0h5.379A6.161,6.161,0,0,1,29.6,5.378h4.119a7.941,7.941,0,0,1,7.931,7.933v7.221a1.567,1.567,0,0,1-.7,1.3A35.715,35.715,0,0,1,26.2,27.313,1.666,1.666,0,0,1,25.986,27.326Zm-7.853-24.2A3.042,3.042,0,0,0,15.21,5.378H26.434a3.041,3.041,0,0,0-2.921-2.252Z" transform="translate(0)" fill="#026936"/>
      </g>
    </g>
  </g>
</svg>
