<svg id="Group_728" data-name="Group 728" xmlns="http://www.w3.org/2000/svg" width="26.087" height="24.503" viewBox="0 0 26.087 24.503">
  <path id="Path_75" data-name="Path 75" d="M32.473,23.19,43.558,13.66,54.643,23.19a1.185,1.185,0,1,0,1.545-1.8L44.331,11.2a1.185,1.185,0,0,0-1.546,0l-11.858,10.2a1.186,1.186,0,1,0,1.546,1.8Z" transform="translate(-30.514 -10.91)" fill="#9ac3af"/>
  <path id="Path_76" data-name="Path 76" d="M68.2,46.012l-8.935,7.709a.8.8,0,0,0-.273.6V65.465a.79.79,0,0,0,.79.79H77.654a.79.79,0,0,0,.791-.79V54.32a.791.791,0,0,0-.275-.6l-8.933-7.709A.791.791,0,0,0,68.2,46.012Zm-.275,16.747a.791.791,0,0,1-.79.791H64.373a.791.791,0,0,1-.792-.791V59.99a.791.791,0,0,1,.792-.79h2.766a.79.79,0,0,1,.79.79Zm0-5.931a.791.791,0,0,1-.79.791H64.373a.791.791,0,0,1-.792-.791V54.059a.791.791,0,0,1,.792-.791h2.766a.79.79,0,0,1,.79.791Zm1.582-2.769a.79.79,0,0,1,.791-.791h2.766a.79.79,0,0,1,.79.791v2.769a.79.79,0,0,1-.79.791H70.3a.79.79,0,0,1-.791-.791Zm0,5.931a.79.79,0,0,1,.791-.79h2.766a.79.79,0,0,1,.79.79v2.769a.791.791,0,0,1-.79.791H70.3a.79.79,0,0,1-.791-.791Z" transform="translate(-55.676 -41.752)" fill="#026936"/>
</svg>
