<svg xmlns="http://www.w3.org/2000/svg" width="14.25" height="15" viewBox="0 0 14.25 15">
  <g id="Home" transform="translate(0 0)">
    <path id="Home-2" data-name="Home" d="M4.983,14.087v-2.3a1.064,1.064,0,0,1,1.061-1.06H8.2a1.064,1.064,0,0,1,1.068,1.06h0V14.08a.923.923,0,0,0,.92.92h1.471a2.6,2.6,0,0,0,1.833-.749,2.558,2.558,0,0,0,.76-1.817V5.9a1.855,1.855,0,0,0-.672-1.427l-5-3.967A2.336,2.336,0,0,0,5.614.559L.725,4.473A1.856,1.856,0,0,0,0,5.9v6.527A2.583,2.583,0,0,0,2.592,15H4.029a.923.923,0,0,0,.655-.265.91.91,0,0,0,.272-.648Z" transform="translate(0 0)" fill="#676767"/>
  </g>
</svg>
