<svg id="Iconly_Bulk_Delete" data-name="Iconly/Bulk/Delete" xmlns="http://www.w3.org/2000/svg" width="20" height="20" viewBox="0 0 20 20">
  <g id="Delete" transform="translate(2.5 1.667)">
    <path id="Fill_1" data-name="Fill 1" d="M12.741.66c0,.057-.444,5.674-.7,8.038a2.432,2.432,0,0,1-2.5,2.356c-1.078.024-2.133.032-3.171.032-1.1,0-2.18-.008-3.226-.032A2.431,2.431,0,0,1,.706,8.7C.445,6.326.009.717,0,.66A.662.662,0,0,1,.16.195.592.592,0,0,1,.6,0H12.154a.608.608,0,0,1,.436.195.623.623,0,0,1,.151.465" transform="translate(1.128 5.58)" fill="#fff"/>
    <path id="Fill_4" data-name="Fill 4" d="M15,3.314a.6.6,0,0,0-.594-.611h-2.43a1.068,1.068,0,0,1-1.034-.847l-.136-.607A1.654,1.654,0,0,0,9.221,0H5.78A1.656,1.656,0,0,0,4.186,1.288l-.127.568A1.069,1.069,0,0,1,3.025,2.7H.595A.6.6,0,0,0,0,3.314v.317a.607.607,0,0,0,.595.611H14.406A.607.607,0,0,0,15,3.631Z" transform="translate(0 0)" fill="#fff"/>
  </g>
</svg>
