<svg id="Iconly_Bulk_Calling" data-name="Iconly/Bulk/Calling" xmlns="http://www.w3.org/2000/svg" width="18" height="18" viewBox="0 0 18 18">
  <g id="Group" transform="translate(10.049 1.5)">
    <g id="Calling" transform="translate(0 0)">
      <path id="Fill_1" data-name="Fill 1" d="M.765.011A.645.645,0,0,0,.52,1.279,2.6,2.6,0,0,1,2.578,3.341h0a.644.644,0,0,0,.63.522.7.7,0,0,0,.124-.011.649.649,0,0,0,.508-.758A3.881,3.881,0,0,0,.765.011" transform="translate(0 2.606)" fill="#fff" opacity="0.4"/>
      <path id="Fill_3" data-name="Fill 3" d="M.715.006A.613.613,0,0,0,.246.138a.647.647,0,0,0,.326,1.15,5.184,5.184,0,0,1,4.594,4.6.643.643,0,0,0,.638.573.6.6,0,0,0,.073,0,.636.636,0,0,0,.431-.238.642.642,0,0,0,.136-.474A6.462,6.462,0,0,0,.715.006" transform="translate(0.003)" fill="#fff" opacity="0.4"/>
    </g>
  </g>
  <g id="Call" transform="translate(1.5 2.25)">
    <path id="Stroke_1" data-name="Stroke 1" d="M6.774,7.479c2.992,2.991,3.671-.469,5.575,1.434,1.836,1.836,2.892,2.2.565,4.53-.291.234-2.143,3.052-8.651-3.454S.571,1.629.805,1.338C3.138-.995,3.5.067,5.336,1.9,7.241,3.807,3.782,4.488,6.774,7.479Z" transform="translate(0 0)" fill="#fff"/>
  </g>
</svg>
