<svg id="Iconly_Bulk_Hide" data-name="Iconly/Bulk/Hide" xmlns="http://www.w3.org/2000/svg" width="28" height="28" viewBox="0 0 28 28">
  <g id="Hide" transform="translate(2.333 4.084)">
    <path id="Fill_1" data-name="Fill 1" d="M11.655,18.951A10.562,10.562,0,0,1,5.5,16.907l3.608-3.64a4.541,4.541,0,0,0,7.1-3.79,4.675,4.675,0,0,0-.785-2.585l3.745-3.779a17.339,17.339,0,0,1,4.1,6.019.874.874,0,0,1,0,.678c-2.436,5.72-6.772,9.142-11.6,9.142ZM.069,9.809a.874.874,0,0,1,0-.678C2.5,3.411,6.841,0,11.655,0h.012a10.339,10.339,0,0,1,4.667,1.125l-3.8,3.838a5.235,5.235,0,0,0-.865-.081A4.572,4.572,0,0,0,7.114,9.476a5.456,5.456,0,0,0,.08.873L2.982,14.6A18.465,18.465,0,0,1,.069,9.809Z" transform="translate(0 0.445)" fill="#8f8f8f" opacity="0.4"/>
    <path id="Combined_Shape" data-name="Combined Shape" d="M.248,19.581a.86.86,0,0,1-.1-1.08l.034-.046L12.392,6.132,16,2.49l1.013-1.024A.276.276,0,0,0,17.07,1.4a.275.275,0,0,0,.057-.069L18.2.25A.857.857,0,0,1,19.4,1.467L17.332,3.557,13.587,7.336,1.454,19.581a.846.846,0,0,1-.6.252A.823.823,0,0,1,.248,19.581Zm8.264-7.122,3.836-3.87a2.878,2.878,0,0,1-2.516,4.193A2.8,2.8,0,0,1,8.511,12.459Z" transform="translate(1.836 0)" fill="#8f8f8f"/>
  </g>
</svg>
