<svg xmlns="http://www.w3.org/2000/svg" width="16" height="14" viewBox="0 0 16 14">
  <path id="Icon_awesome-bath" data-name="Icon awesome-bath" d="M15.25,9.25H2.5V4.75a1,1,0,0,1,1.844-.535A2.124,2.124,0,0,0,4.558,6.81a.375.375,0,0,0,.015.513l.354.354a.375.375,0,0,0,.53,0l2.97-2.97a.375.375,0,0,0,0-.53l-.354-.354a.375.375,0,0,0-.513-.015,2.12,2.12,0,0,0-2.006-.48A2.5,2.5,0,0,0,1,4.75v4.5H.75A.75.75,0,0,0,0,10v.5a.75.75,0,0,0,.75.75H1v1a2.992,2.992,0,0,0,1,2.236V15.5a.75.75,0,0,0,.75.75h.5A.75.75,0,0,0,4,15.5v-.25h8v.25a.75.75,0,0,0,.75.75h.5A.75.75,0,0,0,14,15.5V14.486a2.992,2.992,0,0,0,1-2.236v-1h.25A.75.75,0,0,0,16,10.5V10A.75.75,0,0,0,15.25,9.25Z" transform="translate(0 -2.25)" fill="#9d9d9d"/>
</svg>
