<svg id="Iconly_Bulk_Wallet" data-name="Iconly/Bulk/Wallet" xmlns="http://www.w3.org/2000/svg" width="20" height="20" viewBox="0 0 20 20">
  <g id="Wallet" transform="translate(1.667 2.5)">
    <path id="Fill_1" data-name="Fill 1" d="M12.1,15H4.57a4.694,4.694,0,0,1-3.362-1.178A4.443,4.443,0,0,1,0,10.545v-6.1A4.433,4.433,0,0,1,1.208,1.174,4.7,4.7,0,0,1,4.57,0h7.525a4.7,4.7,0,0,1,3.362,1.174,4.434,4.434,0,0,1,1.207,3.274v.031H13.135a2.95,2.95,0,0,0-2.975,2.9,2.851,2.851,0,0,0,.87,2.056,3,3,0,0,0,2.106.854h3.532v.255a4.444,4.444,0,0,1-1.207,3.277A4.693,4.693,0,0,1,12.1,15ZM3.949,3.229a.632.632,0,0,0-.634.62.609.609,0,0,0,.185.44.641.641,0,0,0,.45.184H8.659a.641.641,0,0,0,.45-.184.61.61,0,0,0,.185-.441.632.632,0,0,0-.639-.619Z" transform="translate(0)" fill="#757575"/>
    <path id="Fill_4" data-name="Fill 4" d="M.031,2A1.682,1.682,0,0,0,1.694,3.333H4.4A.6.6,0,0,0,5,2.722V.612A.607.607,0,0,0,4.4,0H1.63A1.654,1.654,0,0,0,0,1.675,1.692,1.692,0,0,0,.031,2" transform="translate(11.667 5.75)" fill="#757575" opacity="0.4"/>
    <circle id="Oval" cx="0.833" cy="0.833" r="0.833" transform="translate(12.5 6.583)" fill="#757575"/>
  </g>
</svg>
