<svg id="Iconly_Bulk_Heart" data-name="Iconly/Bulk/Heart" xmlns="http://www.w3.org/2000/svg" width="20" height="20" viewBox="0 0 20 20">
  <g id="Heart" transform="translate(1.667 2.5)">
    <path id="Path_34179" d="M8.128,15.7a30.215,30.215,0,0,1-5.273-4.132,10.557,10.557,0,0,1-2.526-4C-.619,4.613.485,1.241,3.566.24a5.235,5.235,0,0,1,4.755.843h0A5.243,5.243,0,0,1,13.076.24c3.081,1,4.192,4.372,3.244,7.322a10.558,10.558,0,0,1-2.511,4A30.49,30.49,0,0,1,8.536,15.7l-.207.135Z" transform="translate(0.018 0)" fill="#757575" opacity="0.4"/>
    <path id="Path_34178" d="M8.342,15.833l-.2-.135a30.266,30.266,0,0,1-5.281-4.132,10.556,10.556,0,0,1-2.54-4C-.615,4.612.488,1.241,3.569.24a5.247,5.247,0,0,1,4.773.852Z" transform="translate(0 0)" fill="#757575"/>
    <path id="Path_34180" d="M1.859,3.333h0A.6.6,0,0,1,1.428,3.1a.682.682,0,0,1-.139-.493h0A1.372,1.372,0,0,0,.46,1.283.656.656,0,0,1,.018.494.6.6,0,0,1,.738.016.319.319,0,0,1,.854.059,2.664,2.664,0,0,1,2.5,2.688a.673.673,0,0,1-.191.467A.59.59,0,0,1,1.859,3.333Z" transform="translate(11.667 2.5)" fill="#757575"/>
  </g>
</svg>
