<svg id="Iconly_Bulk_Category" data-name="Iconly/Bulk/Category" xmlns="http://www.w3.org/2000/svg" width="22" height="22" viewBox="0 0 22 22">
  <g id="Category" transform="translate(1.833 1.833)">
    <path id="Fill_1" data-name="Fill 1" d="M2.327,0h3.1A2.337,2.337,0,0,1,7.758,2.347v3.13A2.337,2.337,0,0,1,5.431,7.823h-3.1A2.337,2.337,0,0,1,0,5.477V2.347A2.337,2.337,0,0,1,2.327,0" transform="translate(10.576)" fill="#026936" opacity="0.4"/>
    <path id="Combined_Shape" data-name="Combined Shape" d="M12.9,18.333a2.337,2.337,0,0,1-2.326-2.346v-3.13A2.337,2.337,0,0,1,12.9,10.51h3.1a2.337,2.337,0,0,1,2.326,2.347v3.13a2.337,2.337,0,0,1-2.326,2.346Zm-10.575,0A2.337,2.337,0,0,1,0,15.987v-3.13A2.337,2.337,0,0,1,2.327,10.51h3.1a2.337,2.337,0,0,1,2.326,2.347v3.13a2.337,2.337,0,0,1-2.326,2.346Zm0-10.51A2.337,2.337,0,0,1,0,5.476V2.346A2.337,2.337,0,0,1,2.327,0h3.1A2.336,2.336,0,0,1,7.757,2.346v3.13A2.336,2.336,0,0,1,5.431,7.823Z" transform="translate(0 0)" fill="#026936"/>
  </g>
</svg>
