<svg id="Iconly_Bulk_Location" data-name="Iconly/Bulk/Location" xmlns="http://www.w3.org/2000/svg" width="10.5" height="15" viewBox="0 0 10.5 15">
  <g id="Location" transform="translate(0 0)">
    <path id="Path_34175" d="M5.281,12.75h0a.62.62,0,0,1-.293-.089A13.841,13.841,0,0,1,1.359,9.25,6.926,6.926,0,0,1,0,5.351,5.377,5.377,0,0,1,2.649.7,5.166,5.166,0,0,1,7.924.746a5.528,5.528,0,0,1,2.576,4.7,7.89,7.89,0,0,1-2.395,5.081,14.056,14.056,0,0,1-2.519,2.115.881.881,0,0,1-.305.108ZM5.244,3.636a1.755,1.755,0,0,0-1.259.53,1.835,1.835,0,0,0-.39,1.98A1.777,1.777,0,0,0,5.243,7.269h.01a1.746,1.746,0,0,0,1.253-.527A1.84,1.84,0,0,0,5.93,3.776,1.743,1.743,0,0,0,5.244,3.636Z" transform="translate(0 0)" fill="#717171"/>
    <ellipse id="Ellipse_743" cx="3.75" cy="0.75" rx="3.75" ry="0.75" transform="translate(1.5 13.5)" fill="#717171" opacity="0.4"/>
  </g>
</svg>
