<svg id="Iconly_Bulk_Info_Square" data-name="Iconly/Bulk/Info Square" xmlns="http://www.w3.org/2000/svg" width="28" height="28" viewBox="0 0 28 28">
  <path id="Fill_1" data-name="Fill 1" d="M16.73,0H6.615C2.66,0,0,2.777,0,6.907v9.532c0,4.118,2.66,6.895,6.615,6.895H16.73c3.955,0,6.6-2.777,6.6-6.895V6.907c0-4.13-2.648-6.907-6.6-6.907" transform="translate(2.333 2.333)" fill="#026936" opacity="0.4"/>
  <path id="Combined_Shape" data-name="Combined Shape" d="M0,9.879V4.723a1.021,1.021,0,1,1,2.041,0V9.879A1.021,1.021,0,1,1,0,9.879ZM.006,1.021A1.024,1.024,0,1,1,1.021,2.041,1.025,1.025,0,0,1,.006,1.021Z" transform="translate(12.973 8.533)" fill="#026936"/>
</svg>
