<svg id="Iconly_Bulk_Send" data-name="Iconly/Bulk/Send" xmlns="http://www.w3.org/2000/svg" width="18" height="18" viewBox="0 0 18 18">
  <g id="Send" transform="translate(1.5 1.5)">
    <path id="Fill_1" data-name="Fill 1" d="M14.571.434A1.454,1.454,0,0,0,13.123.059L1.056,3.545A1.435,1.435,0,0,0,.018,4.679,1.676,1.676,0,0,0,.77,6.246l3.773,2.3A.981.981,0,0,0,5.75,8.407l4.321-4.321a.551.551,0,0,1,.795,0,.566.566,0,0,1,0,.8L6.537,9.2a.983.983,0,0,0-.145,1.207L8.7,14.2a1.5,1.5,0,0,0,1.433.7,1.458,1.458,0,0,0,1.222-1.035L14.931,1.881a1.457,1.457,0,0,0-.36-1.448" transform="translate(0 0)" fill="#fff"/>
    <path id="Combined_Shape" data-name="Combined Shape" d="M3.573,5.719a.563.563,0,0,1,0-.8L4.6,3.9a.563.563,0,0,1,.8.8L4.368,5.719a.562.562,0,0,1-.8,0ZM2.985,2.878a.563.563,0,0,1,0-.8L4.009,1.058a.563.563,0,0,1,.8.8L3.781,2.878a.562.562,0,0,1-.8,0ZM.165,1.984a.563.563,0,0,1,0-.8L1.189.164a.563.563,0,0,1,.8.8L.96,1.984a.562.562,0,0,1-.8,0Z" transform="translate(0.196 8.957)" fill="#fff" opacity="0.4"/>
  </g>
</svg>
