<svg id="Iconly_Bulk_Danger" data-name="Iconly/Bulk/Danger" xmlns="http://www.w3.org/2000/svg" width="48" height="48" viewBox="0 0 48 48">
  <g id="Group" transform="translate(3.999 6.002)">
    <path id="Fill_5" data-name="Fill 5" d="M5.446,36.333c-.026,0-.05,0-.078,0a5.655,5.655,0,0,1-4.952-7.78L15.058,2.9a5.659,5.659,0,0,1,9.892.018L39.5,28.373a5.744,5.744,0,0,1,.5,2.014,5.658,5.658,0,0,1-5.362,5.944l-29.04,0Z" transform="translate(0 0)" fill="#026936" opacity="0.4"/>
    <path id="Combined_Shape" data-name="Combined Shape" d="M0,14.249A1.75,1.75,0,1,1,1.75,16,1.758,1.758,0,0,1,0,14.249ZM0,7.405V1.75a1.75,1.75,0,1,1,3.5,0V7.405a1.75,1.75,0,1,1-3.5,0Z" transform="translate(18.25 12.29)" fill="#026936"/>
  </g>
</svg>
