<svg id="Iconly_Bulk_Edit" data-name="Iconly/Bulk/Edit" xmlns="http://www.w3.org/2000/svg" width="16" height="16" viewBox="0 0 16 16">
  <g id="Edit" transform="translate(2 2)">
    <path id="Fill_1" data-name="Fill 1" d="M4.468,0H.672A.678.678,0,0,0,0,.682a.677.677,0,0,0,.672.682h3.8A.677.677,0,0,0,5.139.682.678.678,0,0,0,4.468,0" transform="translate(6.861 10.636)" fill="#757575" opacity="0.4"/>
    <path id="Fill_3" data-name="Fill 3" d="M4.873.044l3.6,2.907a.207.207,0,0,1,.034.286L4.239,8.794a1.4,1.4,0,0,1-1.086.545L.825,9.367A.265.265,0,0,1,.564,9.16l-.529-2.3A1.425,1.425,0,0,1,.3,5.662L4.588.079A.2.2,0,0,1,4.873.044" transform="translate(0 2.558)" fill="#757575"/>
    <path id="Fill_5" data-name="Fill 5" d="M4.651,3.777l-.693.866a.2.2,0,0,1-.282.032L.075,1.757a.206.206,0,0,1-.029-.288L.715.638A1.715,1.715,0,0,1,3.233.466l.981.781a2.044,2.044,0,0,1,.762,1.168,1.6,1.6,0,0,1-.325,1.362" transform="translate(5.429 0)" fill="#757575" opacity="0.4"/>
  </g>
</svg>
