<svg id="Iconly_Bulk_Logout" data-name="Iconly/Bulk/Logout" xmlns="http://www.w3.org/2000/svg" width="20" height="20" viewBox="0 0 20 20">
  <g id="Logout" transform="translate(1.667 1.667)">
    <path id="Fill_1" data-name="Fill 1" d="M0,3.706A3.744,3.744,0,0,1,3.77,0H7.9a3.734,3.734,0,0,1,3.762,3.7v9.263A3.743,3.743,0,0,1,7.9,16.667H3.763A3.734,3.734,0,0,1,0,12.969V3.706Z" fill="#757575" opacity="0.4"/>
    <path id="Fill_3" data-name="Fill 3" d="M10.817,2.611,8.445.187a.613.613,0,0,0-.884,0,.654.654,0,0,0,0,.907l1.3,1.327H.625a.642.642,0,0,0,0,1.283H8.863l-1.3,1.327a.654.654,0,0,0,0,.908.613.613,0,0,0,.884,0l2.371-2.423a.653.653,0,0,0,0-.909" transform="translate(5.665 5.268)" fill="#757575"/>
  </g>
</svg>
