<svg id="Iconly_Bulk_Show" data-name="Iconly/Bulk/Show" xmlns="http://www.w3.org/2000/svg" width="28" height="28" viewBox="0 0 28 28">
  <g id="Show" transform="translate(2.333 4.667)">
    <path id="Fill_1" data-name="Fill 1" d="M11.667,18.667h-.012C6.838,18.667,2.507,15.3.069,9.661a.844.844,0,0,1,0-.667C2.5,3.362,6.835,0,11.655,0h.012A10.858,10.858,0,0,1,18.36,2.387a16.6,16.6,0,0,1,4.906,6.608.844.844,0,0,1,0,.667C20.827,15.3,16.491,18.667,11.667,18.667Zm0-13.859a4.52,4.52,0,1,0,4.541,4.526A4.544,4.544,0,0,0,11.667,4.808Z" transform="translate(0)" fill="#026936" opacity="0.4"/>
    <path id="Fill_4" data-name="Fill 4" d="M5.68,2.828a2.84,2.84,0,0,1-5.68,0,2.941,2.941,0,0,1,.057-.553H.114A2.33,2.33,0,0,0,2.447.034,2.384,2.384,0,0,1,2.846,0,2.836,2.836,0,0,1,5.68,2.828" transform="translate(8.823 6.501)" fill="#026936"/>
  </g>
</svg>
