<svg id="Iconly_Bulk_2_User" data-name="Iconly/Bulk/2 User" xmlns="http://www.w3.org/2000/svg" width="24" height="24" viewBox="0 0 24 24">
  <g id="_2_User" data-name="2 User" transform="translate(2 3)">
    <path id="Fill_1" data-name="Fill 1" d="M7.349,0C3.386,0,0,.612,0,3.06S3.364,6.142,7.349,6.142c3.964,0,7.349-.612,7.349-3.06S11.335,0,7.349,0" transform="translate(0 11.858)" fill="#6d6d6d"/>
    <path id="Fill_3" data-name="Fill 3" d="M4.863,9.525A4.8,4.8,0,0,0,9.726,4.762,4.8,4.8,0,0,0,4.863,0,4.8,4.8,0,0,0,0,4.762,4.8,4.8,0,0,0,4.863,9.525" transform="translate(2.486 0)" fill="#6d6d6d" opacity="0.4"/>
    <path id="Fill_5" data-name="Fill 5" d="M1.265,4.053A6.368,6.368,0,0,1,.128,7.7a.177.177,0,0,0,.122.275,3.968,3.968,0,0,0,.56.052,4.045,4.045,0,0,0,4.072-2.95A4.045,4.045,0,0,0,.925,0,4.159,4.159,0,0,0,.107.081.148.148,0,0,0,.012.137.111.111,0,0,0,.031.261,6.414,6.414,0,0,1,1.265,4.053" transform="translate(12.909 0.795)" fill="#6d6d6d" opacity="0.4"/>
    <path id="Fill_7" data-name="Fill 7" d="M6.247,1.789A3.19,3.19,0,0,0,3.785.322,18.354,18.354,0,0,0,.038,0,.043.043,0,0,0,0,.031.054.054,0,0,0,.034.085C.734.424,3.442,1.9,3.1,5.012a.207.207,0,0,0,.234.232C4,5.151,5.716,4.79,6.247,3.667a2.107,2.107,0,0,0,0-1.878" transform="translate(13.532 10.38)" fill="#6d6d6d"/>
  </g>
</svg>
