<svg xmlns="http://www.w3.org/2000/svg" width="16" height="12.571" viewBox="0 0 16 12.571">
  <g id="Icon_ionic-ios-bed" data-name="Icon ionic-ios-bed" transform="translate(-2.25 -5.625)">
    <path id="Path_17" data-name="Path 17" d="M17.471,14.625h-.014a.777.777,0,0,0-.779.772.079.079,0,0,1-.079.078H3.9a.079.079,0,0,1-.079-.078.777.777,0,0,0-.779-.772H3.029a.777.777,0,0,0-.779.772v6.385a.777.777,0,0,0,.779.772h.014a.777.777,0,0,0,.779-.772v-.219a.143.143,0,0,1,.143-.142H16.536a.143.143,0,0,1,.143.142v.219a.777.777,0,0,0,.779.772h.014a.777.777,0,0,0,.779-.772V15.4A.777.777,0,0,0,17.471,14.625Z" transform="translate(0 -4.357)" fill="#717171"/>
    <path id="Path_18" data-name="Path 18" d="M5.63,10.368h.805a.143.143,0,0,0,.143-.142v-.46A.571.571,0,0,1,7.151,9.2h3.49a.571.571,0,0,1,.573.566v.46a.143.143,0,0,0,.143.142h.859a.143.143,0,0,0,.143-.142v-.46a.571.571,0,0,1,.573-.566h3.49a.571.571,0,0,1,.573.566v.46a.143.143,0,0,0,.143.142h.805a.286.286,0,0,0,.286-.283V6.758a1.142,1.142,0,0,0-1.145-1.133H6.489A1.142,1.142,0,0,0,5.344,6.758v3.327A.286.286,0,0,0,5.63,10.368Z" transform="translate(-1.536 0)" fill="#717171"/>
  </g>
</svg>
