<svg id="Iconly_Bulk_Chat" data-name="Iconly/Bulk/Chat" xmlns="http://www.w3.org/2000/svg" width="18" height="18" viewBox="0 0 18 18">
  <g id="Chat" transform="translate(1.5 1.5)">
    <path id="Fill_1" data-name="Fill 1" d="M7.515,0A7.5,7.5,0,0,0,0,7.5a7.92,7.92,0,0,0,1.012,3.742.784.784,0,0,1,.053.675l-.5,1.68a.468.468,0,0,0,.615.585l1.515-.45A1.278,1.278,0,0,1,3.811,14a7.49,7.49,0,1,0,3.7-14" fill="#026936" opacity="0.4"/>
    <path id="Combined_Shape" data-name="Combined Shape" d="M6.915.96a.96.96,0,1,1,.96.961A.957.957,0,0,1,6.915.96ZM3.458.953a.96.96,0,1,1,.96.968A.969.969,0,0,1,3.458.953ZM0,.96a.96.96,0,1,1,1.92,0,.967.967,0,0,1-.96.961A.967.967,0,0,1,0,.96Z" transform="translate(3.068 6.547)" fill="#026936"/>
  </g>
</svg>
