<svg id="Image" xmlns="http://www.w3.org/2000/svg" width="50" height="50" viewBox="0 0 50 50">
  <path id="Fill_1" data-name="Fill 1" d="M35.832,50H14.165C5.692,50,0,44.057,0,35.211V14.792C0,5.945,5.692,0,14.165,0H35.835C44.308,0,50,5.945,50,14.792V35.211C50,44.057,44.308,50,35.832,50" fill="#bcbcbc" opacity="0.4"/>
  <path id="Combined_Shape" data-name="Combined Shape" d="M6.286,33.917a10.459,10.459,0,0,1-5.443-1.4,1.841,1.841,0,0,1-.412-2.738c1.174-1.424,2.335-2.855,3.505-4.3,2.23-2.759,3.731-3.56,5.4-2.858A13.951,13.951,0,0,1,11.4,23.816c1.865,1.235,4.457,2.929,7.873,1.091,2.349-1.287,3.708-3.492,4.891-5.4.486-.778.945-1.552,1.481-2.257.556-.727,2.615-3,5.279-1.381a26.717,26.717,0,0,1,4.653,3.877,5.452,5.452,0,0,1,1.273,1.9,8.911,8.911,0,0,1-.491,6.64A9.087,9.087,0,0,1,30.737,33.4a11.464,11.464,0,0,1-3.5.518ZM2.758,6.214A6.212,6.212,0,1,1,8.97,12.427,6.221,6.221,0,0,1,2.758,6.214Z" transform="translate(7.93 10.472)" fill="#bcbcbc"/>
</svg>
