<svg id="kitchen" xmlns="http://www.w3.org/2000/svg" width="40" height="40" viewBox="0 0 40 40">
  <path id="Path_127" data-name="Path 127" d="M232,332h3.906v14.063H232Z" transform="translate(-213.875 -306.063)" fill="#026936" opacity="0.4"/>
  <path id="Path_128" data-name="Path 128" d="M326.453,82H313.172A1.172,1.172,0,0,0,312,83.172V94.5h15.625V83.172A1.172,1.172,0,0,0,326.453,82Zm-9.766,8.984a1.172,1.172,0,0,1-2.344,0V88.641a1.172,1.172,0,1,1,2.344,0Z" transform="translate(-287.625 -75.594)" fill="#026936"/>
  <path id="Path_129" data-name="Path 129" d="M0,243.172v3.516H22.031V242H1.172A1.172,1.172,0,0,0,0,243.172Z" transform="translate(0 -223.094)" fill="#026936"/>
  <path id="Path_130" data-name="Path 130" d="M312,290.75h14.453a1.172,1.172,0,0,0,1.172-1.172V272H312Zm2.344-15.234a1.172,1.172,0,0,1,2.344,0v2.344a1.172,1.172,0,0,1-2.344,0Z" transform="translate(-287.625 -250.75)" fill="#026936"/>
  <path id="Path_131" data-name="Path 131" d="M0,344.891a1.172,1.172,0,0,0,1.172,1.172H15.781V332H0Zm11.094-8.2a1.172,1.172,0,0,1,2.344,0v2.344a1.172,1.172,0,1,1-2.344,0Z" transform="translate(0 -306.063)" fill="#026936"/>
  <path id="Path_132" data-name="Path 132" d="M78.594,1.172A1.172,1.172,0,0,0,77.422,0h-6.25A1.172,1.172,0,0,0,70,1.172v4.3h8.594Z" transform="translate(-64.531)" fill="#026936" opacity="0.4"/>
  <path id="Path_133" data-name="Path 133" d="M1.172,107.812H18.359a1.172,1.172,0,0,0,1.172-1.172v-3.125a1.172,1.172,0,0,0-.409-.89L16.058,100H3.473L.409,102.626a1.172,1.172,0,0,0-.409.89v3.125a1.172,1.172,0,0,0,1.172,1.172Z" transform="translate(0 -92.187)" fill="#026936"/>
</svg>
