<svg xmlns="http://www.w3.org/2000/svg" width="55.333" height="62.957" viewBox="0 0 55.333 62.957">
  <g id="learn" transform="translate(-31)">
    <path id="Path_221" data-name="Path 221" d="M98.5,18.27a12.93,12.93,0,0,0,7.257,10v8.743h11.067V28.268a12.93,12.93,0,0,0,7.257-10,9.227,9.227,0,0,0,7.5-9.048V5.533a1.843,1.843,0,0,0-1.844-1.844H124.2V1.844A1.843,1.843,0,0,0,122.355,0H100.222a1.843,1.843,0,0,0-1.844,1.844V3.689H92.844A1.843,1.843,0,0,0,91,5.533V9.222a9.227,9.227,0,0,0,7.5,9.048ZM124.2,7.378h3.689V9.222a5.524,5.524,0,0,1-3.689,5.194Zm-29.511,0h3.689v7.038a5.524,5.524,0,0,1-3.689-5.194Z" transform="translate(-52.622 0)" fill="#026936"/>
    <path id="Path_222" data-name="Path 222" d="M38.378,353.256H84.488a1.844,1.844,0,0,0,0-3.689,3.645,3.645,0,0,1-3.119-1.844H40.222a1.844,1.844,0,1,1,0-3.689H81.369a3.645,3.645,0,0,1,3.119-1.844,1.844,1.844,0,0,0,0-3.689H71.577v-1.844A5.646,5.646,0,0,0,66.044,331H51.289a5.646,5.646,0,0,0-5.533,5.656V338.5H38.378a7.378,7.378,0,0,0,0,14.755Z" transform="translate(0 -290.3)" fill="#026936" opacity="0.4"/>
  </g>
</svg>
