<svg id="Lock" xmlns="http://www.w3.org/2000/svg" width="14.167" height="16.666" viewBox="0 0 14.167 16.666">
  <path id="Fill_1" data-name="Fill 1" d="M10.61,11.071H3.557A3.523,3.523,0,0,1,0,7.593V3.479A3.523,3.523,0,0,1,3.557,0H10.61a3.523,3.523,0,0,1,3.557,3.479V7.593A3.523,3.523,0,0,1,10.61,11.071Zm-3.53-7.18a.73.73,0,0,0-.737.721V6.451a.741.741,0,0,0,1.481,0V4.613A.734.734,0,0,0,7.079,3.892Z" transform="translate(0 5.595)" fill="#8e8e8e"/>
  <path id="Fill_4" data-name="Fill 4" d="M9.2,4.5V5.722A3.461,3.461,0,0,0,8.273,5.6h-.55V4.5A3.085,3.085,0,0,0,4.606,1.449,3.089,3.089,0,0,0,1.482,4.48V5.6H.94A3.181,3.181,0,0,0,0,5.731V4.5A4.556,4.556,0,0,1,4.59,0,4.551,4.551,0,0,1,9.2,4.5" transform="translate(2.481)" fill="#8e8e8e" opacity="0.4"/>
</svg>
