<svg id="logo" xmlns="http://www.w3.org/2000/svg" width="17.999" height="17.999" viewBox="0 0 17.999 17.999">
  <path id="Path_54" data-name="Path 54" d="M13.031,0H4.967A4.973,4.973,0,0,0,0,4.967v8.065A4.973,4.973,0,0,0,4.967,18h8.065A4.973,4.973,0,0,0,18,13.032V4.967A4.973,4.973,0,0,0,13.031,0ZM16.4,13.032a3.374,3.374,0,0,1-3.37,3.37H4.967a3.374,3.374,0,0,1-3.37-3.37V4.967A3.374,3.374,0,0,1,4.967,1.6h8.065a3.374,3.374,0,0,1,3.37,3.37v8.065Z" fill="#cecece"/>
  <path id="Path_55" data-name="Path 55" d="M45.606,40.97a4.638,4.638,0,1,0,4.638,4.638A4.643,4.643,0,0,0,45.606,40.97Zm0,7.678a3.041,3.041,0,1,1,3.041-3.041A3.044,3.044,0,0,1,45.606,48.648Z" transform="translate(-36.606 -36.608)" fill="#cecece"/>
  <path id="Path_56" data-name="Path 56" d="M120.092,28.251a1.17,1.17,0,1,0,.828.343A1.176,1.176,0,0,0,120.092,28.251Z" transform="translate(-106.261 -25.243)" fill="#cecece"/>
</svg>
