<svg xmlns="http://www.w3.org/2000/svg" width="46" height="46.003" viewBox="0 0 46 46.003">
  <g id="megaphone" transform="translate(-0.016)">
    <g id="Group_2282" data-name="Group 2282" transform="translate(0.016 11.605)">
      <g id="Group_2281" data-name="Group 2281" transform="translate(0)">
        <path id="Path_219" data-name="Path 219" d="M22.849,143.784V126.368c-.494.046-.982.123-1.478.146H7.151a1.428,1.428,0,0,0-1.427,1.427v1.427H1.443a1.428,1.428,0,0,0-1.427,1.427v8.562a1.428,1.428,0,0,0,1.427,1.427H5.724v1.427a1.428,1.428,0,0,0,1.427,1.427h.865l5.737,15.293a2.839,2.839,0,0,0,2.1,1.775,2.794,2.794,0,0,0,2.577-.785l3.428-3.4a2.847,2.847,0,0,0,.525-3.3l-4.789-9.581h3.79C21.876,143.661,22.361,143.738,22.849,143.784Z" transform="translate(-0.016 -126.368)" fill="#026936"/>
      </g>
    </g>
    <g id="Group_2284" data-name="Group 2284" transform="translate(26.037)">
      <g id="Group_2283" data-name="Group 2283">
        <path id="Path_220" data-name="Path 220" d="M307.761.7a1.023,1.023,0,0,0-.091-.135,1.411,1.411,0,0,0-.6-.46c-.009,0-.014-.014-.023-.017-.029-.009-.054.006-.083,0a1.41,1.41,0,0,0-.4-.081,1.317,1.317,0,0,0-.277.058,1.566,1.566,0,0,0-.16.032,1.415,1.415,0,0,0-.625.409c-.011.012-.029.014-.04.026a29.985,29.985,0,0,1-17.45,10.427V29.344a29.981,29.981,0,0,1,17.45,10.424c.011.014.031.02.046.037a1.387,1.387,0,0,0,.354.276c.043.026.077.063.12.083a1.458,1.458,0,0,0,.582.127,1.479,1.479,0,0,0,.482-.083c.009,0,.014-.014.023-.017a1.389,1.389,0,0,0,.6-.46c.034-.046.06-.086.091-.135a1.4,1.4,0,0,0,.234-.743V1.439A1.4,1.4,0,0,0,307.761.7Z" transform="translate(-288.016)" fill="#026936" opacity="0.4"/>
      </g>
    </g>
  </g>
</svg>
