<svg xmlns="http://www.w3.org/2000/svg" xmlns:xlink="http://www.w3.org/1999/xlink" width="369.254" height="369.254" viewBox="0 0 369.254 369.254">
  <defs>
    <filter id="Path_54" x="29.54" y="26.017" width="304.108" height="326.609" filterUnits="userSpaceOnUse">
      <feOffset dy="3" input="SourceAlpha"/>
      <feGaussianBlur stdDeviation="28" result="blur"/>
      <feFlood flood-opacity="0.102"/>
      <feComposite operator="in" in2="blur"/>
      <feComposite in="SourceGraphic"/>
    </filter>
  </defs>
  <g id="OBJECTS" transform="translate(21.613 27.444)">
    <circle id="Ellipse_12" data-name="Ellipse 12" cx="117.822" cy="117.822" r="117.822" transform="translate(-3.613 157.183) rotate(-45)" fill="#f5f5f5"/>
    <path id="Path_45" data-name="Path 45" d="M370.429,288.1v37.366a111.715,111.715,0,0,1-13.787,16.042V288.1h0v-.133c-.066-.274-6.765-5.8-11.922-10.057v-2.321l6.235-1.617a11.839,11.839,0,0,1,7.661.6c1.086.464,2.205.912,3.316,1.268v4.883c5.157,4.22,8.423,6.981,8.49,7.254v.133Z" transform="translate(-116.644 -104.197)" fill="#f5f5f5" opacity="0.73"/>
    <path id="Path_46" data-name="Path 46" d="M75.44,86.86l32.615,76.523,23.836-16.308,13.812,20.08,2.5-33.867,28.852-17.576Z" transform="translate(-60.221 -52.644)" fill="#99c2ae"/>
    <path id="Path_47" data-name="Path 47" d="M142.7,147.388l-29.117,19.922L137.414,151l13.812,20.08,2.5-33.867L107.75,109.84Z" transform="translate(-65.744 -56.573)" fill="#76a48e"/>
    <path id="Path_48" data-name="Path 48" d="M153.108,145.515,107.75,109.84l45.972,27.376Z" transform="translate(-65.744 -56.573)" fill="#026936"/>
    <path id="Path_49" data-name="Path 49" d="M160.7,194.184c-.257-1.492-.589-2.976-.97-4.419l2.238-.605c.4,1.517.738,3.068,1.011,4.626Z" transform="translate(-85.023 -89.764)" fill="#e6e8e8"/>
    <path id="Path_50" data-name="Path 50" d="M124.664,249.074a19.176,19.176,0,0,1-9.294-3.1l1.277-1.932a16.838,16.838,0,0,0,8.175,2.719Zm9.617-1.89-1.02-2.081a23.214,23.214,0,0,0,6.923-5.447l1.724,1.542a25.4,25.4,0,0,1-7.627,5.986Zm-25.361-8.606a19.177,19.177,0,0,1-1.99-8.415v-1.2l2.3.166v1.036a16.764,16.764,0,0,0,1.758,7.387Zm89.581-.531v-2.313c3.018,0,6.119-.141,9.219-.365l.174,2.3c-3.167.232-6.326.357-9.393.373Zm-9.393-.307-1.476-.108c-2.844-.24-5.422-.564-7.884-.987l.4-2.28c2.388.415,4.9.721,7.677.953l1.451.116Zm28.147-1.036-.315-2.288c2.976-.406,6.052-.912,9.12-1.509l.439,2.272C223.348,235.768,220.23,236.282,217.254,236.7Zm-46.668-2.338a45.357,45.357,0,0,1-7.578-3.316c-.365-.207-.73-.415-1.086-.638l1.2-1.981q.5.315,1.02.6a42.473,42.473,0,0,0,7.2,3.192Zm-23.1-.92-2.015-1.152A52.232,52.232,0,0,0,149.3,224l2.18.829a55.017,55.017,0,0,1-4.029,8.6Zm88.163-.257-.539-2.247c2.893-.7,5.9-1.5,8.954-2.379l.638,2.23c-3.126.862-6.168,1.666-9.095,2.379Zm17.991-5.132-.738-2.214c2.943-.953,5.87-1.957,8.788-2.985l.771,2.18c-2.927,1.036-5.895,2.048-8.863,3ZM154.2,225.015a63.618,63.618,0,0,0-6.9-4.543l-.771-.406,1.061-2.056.829.439a65.5,65.5,0,0,1,7.147,4.693Zm-41.627-3.482-1.658-1.658a19.823,19.823,0,0,1,8.515-4.593l.779,2.189a17.878,17.878,0,0,0-7.677,4.046Zm25.5-4.527a36.8,36.8,0,0,0-8.025-.887h-.937l-.058-2.321a39.155,39.155,0,0,1,9.526.937Zm15.852-1.36-2.28-.406a53.79,53.79,0,0,0,.829-9.07h2.313a56.767,56.767,0,0,1-.9,9.46Z" transform="translate(-75.998 -92.672)" fill="#e6e8e8"/>
    <path id="Path_51" data-name="Path 51" d="M305.029,224.212l-.829-2.164c1.443-.547,2.877-1.111,4.311-1.658l.829,2.156Z" transform="translate(-109.718 -95.102)" fill="#00c8b7"/>
    <path id="Path_52" data-name="Path 52" d="M392.637,288.056a2.313,2.313,0,0,1-.224-4.618,54.991,54.991,0,0,0,36.247-18.812,2.315,2.315,0,0,1,3.49,3.043,59.585,59.585,0,0,1-39.289,20.345Z" transform="translate(-124.434 -102.528)" fill="#b1b1b1"/>
    <path id="Path_53" data-name="Path 53" d="M325.819,277.7l-80.66,47.564L164.5,277.7a.365.365,0,0,1,0-.133c.066-.3,4.51-4.021,11.3-9.534l.191-.158c22.269-18.082,69.152-55.116,69.152-55.116s46.884,37.034,69.152,55.116c6.9,5.6,11.433,9.377,11.491,9.692A.365.365,0,0,1,325.819,277.7Z" transform="translate(-85.837 -93.798)" fill="#026936"/>
    <g transform="matrix(1, 0, 0, 1, -21.61, -27.44)" filter="url(#Path_54)">
      <path id="Path_54-2" data-name="Path 54" d="M281.066,165.25H194.014A13.514,13.514,0,0,0,180.5,178.764V310.345a13.514,13.514,0,0,0,13.514,13.514H303.086a13.522,13.522,0,0,0,13.522-13.514V200.784Z" transform="translate(-66.96 -58.23)" fill="#fff"/>
    </g>
    <path id="Path_55" data-name="Path 55" d="M301.8,187.27a13.514,13.514,0,0,0,13.514,13.514h22.028L301.8,165.25Z" transform="translate(-109.308 -85.677)" fill="#e6e8e8"/>
    <path id="Path_56" data-name="Path 56" d="M281.348,253.19H209.3a3.88,3.88,0,0,0-3.872,3.88h0a3.872,3.872,0,0,0,3.872,3.88h72.046a3.872,3.872,0,0,0,3.88-3.88h0A3.88,3.88,0,0,0,281.348,253.19Z" transform="translate(-92.835 -100.709)" fill="#eaeaea"/>
    <path id="Path_80" data-name="Path 80" d="M261.185,253.19H208.273c-1.571,0-2.843,1.74-2.843,3.88h0a4.677,4.677,0,0,0,.831,2.743,2.531,2.531,0,0,0,2.013,1.137h52.912a2.528,2.528,0,0,0,2.017-1.134,4.676,4.676,0,0,0,.833-2.746h0C264.035,254.927,262.759,253.19,261.185,253.19Z" transform="translate(-92.835 -139.032)" fill="#eaeaea"/>
    <path id="Path_57" data-name="Path 57" d="M281.348,276.5H209.3a3.88,3.88,0,0,0-3.872,3.88h0a3.872,3.872,0,0,0,3.872,3.88h72.046a3.872,3.872,0,0,0,3.88-3.88h0A3.88,3.88,0,0,0,281.348,276.5Z" transform="translate(-92.835 -104.694)" fill="#eaeaea"/>
    <path id="Path_81" data-name="Path 81" d="M270.309,276.5h-61.57a3.633,3.633,0,0,0-3.309,3.88h0a4.231,4.231,0,0,0,.967,2.743,3.086,3.086,0,0,0,2.342,1.137h61.57a3.085,3.085,0,0,0,2.347-1.134,4.231,4.231,0,0,0,.969-2.746h0A3.631,3.631,0,0,0,270.309,276.5Z" transform="translate(-92.835 -143.017)" fill="#eaeaea"/>
    <path id="Path_58" data-name="Path 58" d="M248.623,299.12H209.292a3.872,3.872,0,0,0-3.872,3.872h0a3.872,3.872,0,0,0,3.872,3.88h39.331a3.88,3.88,0,0,0,3.88-3.88h0A3.88,3.88,0,0,0,248.623,299.12Z" transform="translate(-92.833 -108.56)" fill="#eaeaea"/>
    <path id="Path_59" data-name="Path 59" d="M325.83,291.09v77.377a9.849,9.849,0,0,1-9.824,9.833H174.31a9.833,9.833,0,0,1-9.8-9.833V291.09l80.66,47.555Z" transform="translate(-85.84 -107.187)" fill="#99c2ae"/>
    <path id="Path_60" data-name="Path 60" d="M323.661,381.865,271.745,330l-26.016,15.338L219.7,329.99,167.78,381.906a9.733,9.733,0,0,0,7.089,3.084h141.7A9.75,9.75,0,0,0,323.661,381.865Z" transform="translate(-86.399 -113.837)" fill="#026936"/>
    <path id="Path_66" data-name="Path 66" d="M77.808,113.929,88.387,138.2a2.487,2.487,0,0,1-1.268,3.217l-.381.158a2.429,2.429,0,0,1-3.209-1.31L73.323,115.853a2.487,2.487,0,0,1,1.4-3.242h0A2.487,2.487,0,0,1,77.808,113.929Z" transform="translate(-70.223 -76.656)" fill="#b1b1b1"/>
    <path id="Path_67" data-name="Path 67" d="M127.153,320.3a7.777,7.777,0,1,0,5.5,2.281,7.785,7.785,0,0,0-5.5-2.281Zm0,10.927a3.15,3.15,0,1,1,3.15-3.142,3.15,3.15,0,0,1-3.15,3.142Z" transform="translate(-78.123 -112.18)" fill="#b1b1b1"/>
    <path id="Path_68" data-name="Path 68" d="M378.558,358.27a7.777,7.777,0,1,0,5.5,2.275A7.777,7.777,0,0,0,378.558,358.27Zm0,10.927a3.15,3.15,0,1,1,3.15-3.15A3.15,3.15,0,0,1,378.558,369.2Z" transform="translate(-121.101 -118.671)" fill="#b1b1b1"/>
    <path id="Path_69" data-name="Path 69" d="M455.689,212.55A5.953,5.953,0,1,0,459.9,214.3a5.961,5.961,0,0,0-4.212-1.746Zm0,8.365a2.4,2.4,0,1,1,1.705-.7,2.413,2.413,0,0,1-1.705.7Z" transform="translate(-134.592 -93.762)" fill="#b1b1b1"/>
    <path id="Path_70" data-name="Path 70" d="M329.131,97.64a6.293,6.293,0,1,0,4.458,1.843A6.3,6.3,0,0,0,329.131,97.64Zm0,8.846a2.537,2.537,0,1,1,1.808-.74,2.553,2.553,0,0,1-1.808.74Z" transform="translate(-112.903 -74.12)" fill="#b1b1b1"/>
    <path id="Path_71" data-name="Path 71" d="M86.123,274.61a6.632,6.632,0,1,0,6.633,6.632A6.632,6.632,0,0,0,86.123,274.61Z" transform="translate(-71.308 -104.371)" fill="#b1b1b1"/>
    <path id="Path_72" data-name="Path 72" d="M406.867,301a4.817,4.817,0,1,0,4.817,4.817A4.817,4.817,0,0,0,406.867,301Z" transform="translate(-126.444 -108.881)" fill="#f5f5f5"/>
    <path id="Path_73" data-name="Path 73" d="M214.079,100a7.039,7.039,0,1,0,7.039,7.039A7.039,7.039,0,0,0,214.079,100Z" transform="translate(-93.11 -74.524)" fill="#b1b1b1"/>
    <path id="Path_74" data-name="Path 74" d="M259.942,407.51a5.132,5.132,0,1,0,5.132,5.132,5.132,5.132,0,0,0-5.132-5.132Z" transform="translate(-101.276 -127.088)" fill="#f2e4c9"/>
    <path id="Path_75" data-name="Path 75" d="M379.474,132.77a6.019,6.019,0,1,0,6.044,5.994A6.019,6.019,0,0,0,379.474,132.77Z" transform="translate(-121.56 -80.125)" fill="#b1b1b1"/>
    <circle id="Ellipse_13" data-name="Ellipse 13" cx="3.424" cy="3.424" r="3.424" transform="translate(30.893 106.375)" fill="#f5f5f5"/>
    <path id="Path_76" data-name="Path 76" d="M458.242,176.35a5.8,5.8,0,1,0,4.145,1.7A5.8,5.8,0,0,0,458.242,176.35Z" transform="translate(-135.064 -87.574)" fill="#b1b1b1"/>
    <circle id="Ellipse_14" data-name="Ellipse 14" cx="3.731" cy="3.731" r="3.731" transform="translate(7.801 119.7)" fill="#f5f5f5"/>
    <path id="Path_77" data-name="Path 77" d="M270.827,83.8l2.338-2.346a2.089,2.089,0,0,0-2.952-2.951l-2.338,2.346L265.529,78.5a2.089,2.089,0,0,0-2.951,2.951l2.346,2.346-2.346,2.338a2.089,2.089,0,0,0,2.951,2.951l2.346-2.338,2.338,2.338a2.089,2.089,0,0,0,2.952-2.951Z" transform="translate(-102.51 -70.755)" fill="#b1b1b1"/>
    <path id="Path_78" data-name="Path 78" d="M78.483,169.111l2.346-2.346a2.089,2.089,0,0,0-2.951-2.951l-2.346,2.346-2.338-2.346a2.09,2.09,0,1,0-2.96,2.951l2.346,2.346-2.346,2.338a2.093,2.093,0,0,0,2.96,2.96l2.338-2.346,2.346,2.346a2.09,2.09,0,0,0,2.951-2.96Z" transform="translate(-69.621 -85.327)" fill="#b1b1b1"/>
    <path id="Path_79" data-name="Path 79" d="M412.031,341.853l1.981-1.982a1.774,1.774,0,0,0-2.487-2.487l-1.981,1.99-1.981-1.99a1.774,1.774,0,0,0-2.487,2.487l1.982,1.982-1.982,1.99a1.766,1.766,0,0,0,2.487,2.487l1.981-1.981,1.981,1.981a1.766,1.766,0,0,0,2.487-2.487Z" transform="translate(-126.891 -115.038)" fill="#b1b1b1"/>
    <g id="Group_58" data-name="Group 58" transform="translate(213.877 69.2)">
      <path id="Path_61" data-name="Path 61" d="M359.451,162.884A37.136,37.136,0,0,0,326.3,196.995a36.706,36.706,0,0,0,6.487,23.694,8.955,8.955,0,0,1,.88,8.525l-2.924,7.037,11.923-3.12a8.974,8.974,0,0,1,5.848.456,36.99,36.99,0,1,0,10.936-70.7Z" transform="translate(-326.201 -162.683)" fill="#99c2ae"/>
      <path id="Path_62" data-name="Path 62" d="M374.34,232.018l2.031-2.031s-1.614-3.8,5.158-10.227c4.025-3.8,4.93-7.512,4.6-10.537a10.569,10.569,0,0,0-9.265-9.259c-3.025-.329-6.721.57-10.543,4.6-6.417,6.772-10.221,5.158-10.221,5.158l-2.031,2.032Z" transform="translate(-336.433 -176.348)" fill="#fff"/>
      <path id="Path_63" data-name="Path 63" d="M360.677,231a5.6,5.6,0,0,0,7.835,7.828Z" transform="translate(-338.458 -187.765)" fill="#fff"/>
      <path id="Path_64" data-name="Path 64" d="M404,201.14l-1.266,1.266a12.227,12.227,0,0,0-3.9-3.886l1.266-1.266A2.753,2.753,0,1,1,404,201.146Z" transform="translate(-352.87 -175.062)" fill="#fff"/>
      <path id="Path_65" data-name="Path 65" d="M364.132,162.7a31.947,31.947,0,1,1-32.662,52.23,37,37,0,0,0,3.253,5.734,8.955,8.955,0,0,1,.88,8.55l-2.924,7.037,11.923-3.12a8.974,8.974,0,0,1,5.848.456,36.984,36.984,0,1,0,13.682-70.88Z" transform="translate(-328.135 -162.687)" fill="#026936"/>
    </g>
  </g>
</svg>
