<svg id="Layer_1" data-name="Layer 1" xmlns="http://www.w3.org/2000/svg" viewBox="0 0 304.34 68.43"><defs><style>.cls-1{fill:#231f20;}.cls-2{fill:#026936;}</style></defs><path d="M24.34,17.19l-5.62-1,2.11-1.75c0,.44,0,1-.06,1.53s0,1.06,0,1.6c0,1.07.09,2.14.18,3.22a64.73,64.73,0,0,0,4.58,19,65.35,65.35,0,0,0,6.2,11.6,67.43,67.43,0,0,0,8.52,10.14A67.92,67.92,0,0,1,31,51.92a65.55,65.55,0,0,1-7.14-11.38,66.79,66.79,0,0,1-4.73-12.67,65.79,65.79,0,0,1-1.39-6.67c-.18-1.13-.32-2.26-.43-3.41-.05-.57-.09-1.14-.13-1.72s-.05-1.14-.05-1.8v-2l2.1.22,5.68.59Z"/><path d="M15.24,23.76l-5.62-1,2.11-2c0,.38.07.9.12,1.37s.13,1,.21,1.44c.15,1,.35,1.93.58,2.9a51.23,51.23,0,0,0,1.7,5.72A62.48,62.48,0,0,0,19.53,43.1a69.24,69.24,0,0,0,7.16,9.82,81.32,81.32,0,0,0,8.71,8.6,82.67,82.67,0,0,1-9.39-8,72,72,0,0,1-8-9.44,64.48,64.48,0,0,1-6.21-10.84,54.4,54.4,0,0,1-2.26-5.9c-.32-1-.61-2-.86-3.06-.12-.52-.24-1.05-.35-1.58s-.19-1-.27-1.68l-.25-2.21,2.37.24,5.67.6Z"/><path d="M50.37,58.14c-2.56.42-4.59.83-5.83,1.09C40.89,54.13,25.6,30.81,32.9,8.14a69.5,69.5,0,0,0,20.55,5.25l.41-4.1a62.9,62.9,0,0,1-21.17-5.8l-2-1.11L29.8,4.56c-4.54,11.78-3.85,25.6,2,40A81.78,81.78,0,0,0,42.06,62.8l.81,1,1.27-.29c.06,0,2.5-.57,6.23-1.21Z"/><path class="cls-1" d="M57.5,58a.91.91,0,0,1-.29-.69V38.12a1,1,0,0,1,1-1h3.18a.94.94,0,0,1,.69.28,1,1,0,0,1,.29.7V39.5a7,7,0,0,1,5.9-2.77q4.53,0,6.32,3.63a7.24,7.24,0,0,1,2.77-2.63,7.81,7.81,0,0,1,3.87-1A7.11,7.11,0,0,1,86.67,39c1.42,1.52,2.12,3.74,2.12,6.65V57.35a1,1,0,0,1-.26.69.91.91,0,0,1-.71.29H84.47a.91.91,0,0,1-.69-.29.94.94,0,0,1-.28-.69V46a5.38,5.38,0,0,0-1.08-3.73,3.76,3.76,0,0,0-2.88-1.16,3.63,3.63,0,0,0-2.71,1.18A5.29,5.29,0,0,0,75.71,46V57.35a.94.94,0,0,1-.28.69.91.91,0,0,1-.7.29H71.39A.91.91,0,0,1,70.7,58a.94.94,0,0,1-.29-.69V46a5.23,5.23,0,0,0-1.12-3.73,3.77,3.77,0,0,0-2.83-1.16,3.67,3.67,0,0,0-2.75,1.18A5.24,5.24,0,0,0,62.59,46V57.35a.94.94,0,0,1-.29.69.91.91,0,0,1-.69.29H58.19A.89.89,0,0,1,57.5,58Z"/><path class="cls-1" d="M95.91,56.11a10.45,10.45,0,0,1-2.84-7.4l0-1,0-1A10.53,10.53,0,0,1,96,39.38a9.67,9.67,0,0,1,7.15-2.65,9.51,9.51,0,0,1,7.44,2.93,11.32,11.32,0,0,1,2.62,7.83v.86a.94.94,0,0,1-.28.69,1,1,0,0,1-.73.28H98.62v.33a6.4,6.4,0,0,0,1.24,3.77,3.79,3.79,0,0,0,3.2,1.53,4.68,4.68,0,0,0,3.87-1.88,2.27,2.27,0,0,1,.59-.57,1.46,1.46,0,0,1,.67-.12h3.51a1,1,0,0,1,.63.22.69.69,0,0,1,.26.55,3.77,3.77,0,0,1-1.16,2.31,9.58,9.58,0,0,1-3.32,2.3,12.07,12.07,0,0,1-5,1A9.79,9.79,0,0,1,95.91,56.11ZM107.62,45.9v-.12a5.89,5.89,0,0,0-1.2-3.87,4.05,4.05,0,0,0-3.32-1.47,4,4,0,0,0-3.3,1.47,5.94,5.94,0,0,0-1.18,3.87v.12Z"/><path class="cls-1" d="M117.77,58a.94.94,0,0,1-.29-.69V38.16a1,1,0,0,1,.29-.72.92.92,0,0,1,.69-.3h3.3a1,1,0,0,1,1,1v1.67a6.42,6.42,0,0,1,2.47-2,8,8,0,0,1,3.4-.69h1.67a.91.91,0,0,1,1,1v2.93a1,1,0,0,1-.27.69.91.91,0,0,1-.71.29h-3.18A3.8,3.8,0,0,0,123,46.14V57.35a1,1,0,0,1-1,1h-3.55A.91.91,0,0,1,117.77,58Z"/><path class="cls-1" d="M136.19,56.27a9.45,9.45,0,0,1-2.81-6.74l0-1.8,0-1.79a9.38,9.38,0,0,1,2.85-6.72,12,12,0,0,1,14.67,0,9.38,9.38,0,0,1,2.85,6.72c0,.33.05.92.05,1.79s0,1.47-.05,1.8a9.45,9.45,0,0,1-2.81,6.74c-1.74,1.65-4.19,2.47-7.37,2.47S137.93,57.92,136.19,56.27Zm10.72-2.93a6.44,6.44,0,0,0,1.3-4c0-.27,0-.8,0-1.59s0-1.31,0-1.59a6.43,6.43,0,0,0-1.3-4,4.79,4.79,0,0,0-6.69,0,6.49,6.49,0,0,0-1.3,4l0,1.59,0,1.59a6.5,6.5,0,0,0,1.3,4,4.79,4.79,0,0,0,6.69,0Z"/><path class="cls-2" d="M158.65,58a.91.91,0,0,1-.29-.69v-27a.89.89,0,0,1,.29-.71,1,1,0,0,1,.69-.27h3.38a.93.93,0,0,1,.71.27,1,1,0,0,1,.27.71v27a1,1,0,0,1-.27.69.88.88,0,0,1-.71.29h-3.38A.89.89,0,0,1,158.65,58Z"/><path class="cls-2" d="M171.46,57.9a6.93,6.93,0,0,1-2.73-2.26A5.53,5.53,0,0,1,170,48a13.43,13.43,0,0,1,6.16-2.32l5.58-.82V44a3.63,3.63,0,0,0-.9-2.69,3.94,3.94,0,0,0-2.89-.9,4.14,4.14,0,0,0-2.18.51,6.65,6.65,0,0,0-1.32,1l-.66.69a.6.6,0,0,1-.61.49H170a.89.89,0,0,1-.64-.25.86.86,0,0,1-.26-.65,4.41,4.41,0,0,1,1-2.32,7.42,7.42,0,0,1,2.95-2.24,11.37,11.37,0,0,1,4.89-.94c3.21,0,5.54.72,7,2.16a7.58,7.58,0,0,1,2.2,5.67V57.35a1,1,0,0,1-.26.69.91.91,0,0,1-.72.29h-3.3a.91.91,0,0,1-.69-.29.94.94,0,0,1-.28-.69V55.76a6.62,6.62,0,0,1-2.55,2.14,9,9,0,0,1-4.1.84A8.65,8.65,0,0,1,171.46,57.9Zm8.87-4.5a5.91,5.91,0,0,0,1.42-4.28v-.86l-4.07.66a8.7,8.7,0,0,0-3.57,1.18,2.37,2.37,0,0,0-1.2,2,2.33,2.33,0,0,0,1.1,2,4.66,4.66,0,0,0,2.65.74A4.91,4.91,0,0,0,180.33,53.4Z"/><path class="cls-2" d="M192.71,58a.94.94,0,0,1-.28-.69v-27a.92.92,0,0,1,.28-.71,1,1,0,0,1,.7-.27h3.38a.93.93,0,0,1,.71.27,1,1,0,0,1,.27.71v27a1,1,0,0,1-.27.69.88.88,0,0,1-.71.29h-3.38A.93.93,0,0,1,192.71,58Z"/><path class="cls-2" d="M203.51,65.81a.94.94,0,0,1-.28-.72v-27a.94.94,0,0,1,.28-.72,1,1,0,0,1,.7-.26h3.22a1,1,0,0,1,.71.26,1,1,0,0,1,.26.72v1.63a7.71,7.71,0,0,1,6.52-3,7.82,7.82,0,0,1,6.32,2.59,11.07,11.07,0,0,1,2.37,7c0,.32,0,.8,0,1.42s0,1.14,0,1.47a11.09,11.09,0,0,1-2.37,6.91,7.79,7.79,0,0,1-6.32,2.63,7.35,7.35,0,0,1-6.27-2.9v9.25a.91.91,0,0,1-1,1h-3.46A1,1,0,0,1,203.51,65.81ZM218.1,49c0-.27,0-.68,0-1.23s0-.95,0-1.22q-.28-5.41-4.68-5.42a4.11,4.11,0,0,0-3.51,1.51,6.57,6.57,0,0,0-1.26,3.71l0,1.55,0,1.59a5.62,5.62,0,0,0,1.28,3.48,4.29,4.29,0,0,0,3.49,1.45Q217.82,54.38,218.1,49Z"/><path class="cls-2" d="M230.17,56.27a9.81,9.81,0,0,1-2.16-6.7V38.12a1,1,0,0,1,1-1h3.58a.9.9,0,0,1,1,1v11.2q0,5.06,4.44,5.06A4.35,4.35,0,0,0,241.35,53a5.24,5.24,0,0,0,1.25-3.71V38.12a1,1,0,0,1,1-1h3.58a.91.91,0,0,1,1,1V57.35a1,1,0,0,1-.27.69.88.88,0,0,1-.71.29h-3.3a.91.91,0,0,1-.69-.29.94.94,0,0,1-.29-.69V55.68a7.94,7.94,0,0,1-6.8,3.06A7.43,7.43,0,0,1,230.17,56.27Z"/><path class="cls-2" d="M253.8,58a.94.94,0,0,1-.28-.69V38.16a1,1,0,0,1,.28-.72.92.92,0,0,1,.7-.3h3.3a1,1,0,0,1,.73.28,1,1,0,0,1,.29.74v1.67a6.39,6.39,0,0,1,2.46-2,8,8,0,0,1,3.4-.69h1.68a1,1,0,0,1,.71.26,1,1,0,0,1,.26.72v2.93a1,1,0,0,1-.26.69.94.94,0,0,1-.71.29h-3.18a3.8,3.8,0,0,0-4.12,4.11V57.35a.94.94,0,0,1-.28.69,1,1,0,0,1-.74.29H254.5A.91.91,0,0,1,253.8,58Z"/><path class="cls-2" d="M266.29,65.81a1,1,0,0,1-.26-.72V62.77a1,1,0,0,1,.28-.73,1,1,0,0,1,.7-.29h1.06a2.6,2.6,0,0,0,2.3-.87,4.7,4.7,0,0,0,.59-2.59V38.12a.91.91,0,0,1,.29-.72,1,1,0,0,1,.69-.26h3.54a1,1,0,0,1,1,1V58.37a7.82,7.82,0,0,1-2,5.69q-2,2-5.93,2H267A1,1,0,0,1,266.29,65.81Zm4.79-32.46a.94.94,0,0,1-.28-.69V29.72a.94.94,0,0,1,.28-.69,1,1,0,0,1,.7-.29h3.83a1,1,0,0,1,.71.29.93.93,0,0,1,.31.69v2.94a.94.94,0,0,1-.29.69,1,1,0,0,1-.73.28h-3.83A.94.94,0,0,1,271.08,33.35Z"/><path class="cls-2" d="M284.23,57.9a6.79,6.79,0,0,1-2.73-2.26A5.53,5.53,0,0,1,282.74,48a13.34,13.34,0,0,1,6.15-2.32l5.59-.82V44a3.63,3.63,0,0,0-.9-2.69,4,4,0,0,0-2.89-.9,4.11,4.11,0,0,0-2.18.51,7.06,7.06,0,0,0-1.33,1l-.65.69a.61.61,0,0,1-.61.49h-3.14a.85.85,0,0,1-.63-.25.83.83,0,0,1-.27-.65,4.41,4.41,0,0,1,1-2.32,7.46,7.46,0,0,1,3-2.24,11.37,11.37,0,0,1,4.89-.94q4.8,0,7,2.16a7.62,7.62,0,0,1,2.2,5.67V57.35a1,1,0,0,1-.27.69.89.89,0,0,1-.71.29h-3.3A.91.91,0,0,1,295,58a.94.94,0,0,1-.28-.69V55.76a6.62,6.62,0,0,1-2.55,2.14,9,9,0,0,1-4.09.84A8.59,8.59,0,0,1,284.23,57.9Zm8.86-4.5a5.92,5.92,0,0,0,1.43-4.28v-.86l-4.08.66a8.76,8.76,0,0,0-3.57,1.18,2.37,2.37,0,0,0-1.2,2,2.33,2.33,0,0,0,1.1,2,4.68,4.68,0,0,0,2.65.74A4.88,4.88,0,0,0,293.09,53.4Z"/><polygon class="cls-2" points="47.63 17.74 53.64 24.94 50.87 24.87 68.8 11.34 53.57 27.85 52.4 29.11 50.8 27.78 43.6 21.77 47.63 17.74"/></svg>