<svg id="parking-sign" xmlns="http://www.w3.org/2000/svg" width="40" height="38.34" viewBox="0 0 40 38.34">
  <path id="Path_144" data-name="Path 144" d="M4.967,23.935H2.338V18.8h2.63V16.465H2.338V11.791a1.169,1.169,0,0,0-2.338,0V30.947a1.169,1.169,0,0,0,2.338,0V26.273h2.63Z" transform="translate(0 -10.622)" fill="#026936"/>
  <path id="Path_145" data-name="Path 145" d="M181.857,314.143a5.753,5.753,0,0,1-5.746-5.746v-.678H160.13v.678a5.753,5.753,0,0,1-5.746,5.746h-.2v2.162a.984.984,0,0,0,.983.983h7.686v-4.31a1.169,1.169,0,0,1,1.168-1.169l8.206,0h0a1.169,1.169,0,0,1,1.169,1.169v4.314h7.686a.984.984,0,0,0,.983-.983v-2.162Z" transform="translate(-142.061 -284.468)" fill="#026936" opacity="0.4"/>
  <path id="Path_146" data-name="Path 146" d="M383.167,218.044h6.319l-1.536-4.385a.984.984,0,0,0-.928-.658h-3.855Z" transform="translate(-353.206 -197.184)" fill="#026936" opacity="0.4"/>
  <path id="Path_147" data-name="Path 147" d="M194.074,462.938a.78.78,0,0,0,.779.779h1.264a.78.78,0,0,0,.779-.779v-2.4h-2.822Z" transform="translate(-178.909 -425.377)" fill="#026936" opacity="0.4"/>
  <path id="Path_148" data-name="Path 148" d="M157.793,308.4v-.678h-2.9a.714.714,0,0,0-.713.713v3.373h.2a3.413,3.413,0,0,0,3.409-3.409Z" transform="translate(-142.132 -284.502)" fill="#026936" opacity="0.4"/>
  <path id="Path_149" data-name="Path 149" d="M465.634,307.719v.678a3.413,3.413,0,0,0,3.409,3.409h.2v-3.373a.714.714,0,0,0-.713-.713h-2.9Z" transform="translate(-429.247 -284.501)" fill="#026936" opacity="0.4"/>
  <path id="Path_150" data-name="Path 150" d="M295.434,390.194H301.3v3.145h-5.868Z" transform="translate(-272.343 -360.517)" fill="#026936" opacity="0.4"/>
  <path id="Path_151" data-name="Path 151" d="M436.131,462.938a.78.78,0,0,0,.779.779h1.264a.78.78,0,0,0,.779-.779v-2.4h-2.822Z" transform="translate(-402.043 -425.377)" fill="#026936" opacity="0.4"/>
  <path id="Path_152" data-name="Path 152" d="M112.663,39.507a1.3,1.3,0,0,0,1.3-1.3V20.676a1.3,1.3,0,0,0-1.3-1.3H95.048a1.3,1.3,0,0,0-1.3,1.3V38.208a1.3,1.3,0,0,0,1.3,1.3ZM99.6,24.349a1.169,1.169,0,0,1,1.169-1.169h3.032a4.231,4.231,0,1,1,0,8.46c-.583,0-1.417.007-1.863.011v2.884a1.169,1.169,0,0,1-2.338,0Z" transform="translate(-86.405 -18.695)" fill="#026936"/>
  <path id="Path_153" data-name="Path 153" d="M198.9,101.981c.455,0,1.281-.011,1.863-.011a1.894,1.894,0,1,0,0-3.785H198.9Z" transform="translate(-183.355 -91.342)" fill="#026936"/>
</svg>
