<svg id="placeholder" xmlns="http://www.w3.org/2000/svg" width="26" height="26" viewBox="0 0 26 26">
  <path id="Path_103" data-name="Path 103" d="M266.135,277.629l.6-.361v2.788h3.5V278.2h1.523v1.861h3.5v-2.788l.6.361.784-1.306L271,272.936l-5.644,3.387Z" transform="translate(-251.876 -259.076)" fill="#026936"/>
  <path id="Path_104" data-name="Path 104" d="M25.737,277.268v2.788h3.5V278.2h1.523v1.861h3.5v-2.788l.6.361.784-1.306L30,272.936l-5.644,3.387.784,1.306Z" transform="translate(-23.114 -259.076)" fill="#026936"/>
  <path id="Path_105" data-name="Path 105" d="M0,443.143H26v3.5H0Z" transform="translate(0 -420.64)" fill="#99c3ae"/>
  <path id="Path_106" data-name="Path 106" d="M146.392,14.514s5.864-4.452,5.864-8.65a5.864,5.864,0,0,0-11.728,0C140.528,10.062,146.392,14.514,146.392,14.514ZM143.262,6a3.13,3.13,0,1,1,3.13,3.13A3.133,3.133,0,0,1,143.262,6Z" transform="translate(-133.392)" fill="#99c3ae"/>
</svg>
