<svg xmlns="http://www.w3.org/2000/svg" width="16" height="16.043" viewBox="0 0 16 16.043">
  <g id="plant" transform="translate(-0.693 0)">
    <path id="Path_208" data-name="Path 208" d="M260.232,61.651q.067.347.107.709a3.555,3.555,0,0,0,3.29-.194,5.741,5.741,0,0,0,3.219-4.669.5.5,0,0,0-.218-.458,5.62,5.62,0,0,0-5.57-.417A3.957,3.957,0,0,1,260.232,61.651Z" transform="translate(-251.405 -54.318)" fill="#757575"/>
    <path id="Path_209" data-name="Path 209" d="M14.779,11.054A17.532,17.532,0,0,0,9.358,9.932a13.171,13.171,0,0,1,0,1.689.5.5,0,0,1-1-.063,11.325,11.325,0,0,0-.664-4.651A4.491,4.491,0,0,0,5.366,3.922.5.5,0,1,1,5.768,3,5.348,5.348,0,0,1,8.522,6.212a3.033,3.033,0,0,0,.653-1.436,3.6,3.6,0,0,0-1.262-3.1A5.625,5.625,0,0,0,2.477.186a.5.5,0,0,0-.357.36A5.747,5.747,0,0,0,4.7,6.873a2.889,2.889,0,0,0,2.06.4,8.885,8.885,0,0,1,.585,2.7,17.685,17.685,0,0,0-4.736,1.08c-2.856,1.068-2.477,3.8.881,4.472a26.47,26.47,0,0,0,10.411,0c3.35-.668,3.743-3.4.881-4.472Z" transform="translate(0 0)" fill="#757575"/>
  </g>
</svg>
