<svg xmlns="http://www.w3.org/2000/svg" width="56" height="56" viewBox="0 0 56 56"><path d="M95.386,169.292l1.271,0a1.213,1.213,0,1,0,0-2.406H95.386Z" transform="translate(-84.953 -148.629)"/><path d="M204.227,369.75h11.325v15.559H204.227Z" transform="translate(-181.89 -329.309)" fill="#9ac3af"/><path d="M56,37.16V7.583H33.663V4.293L28,0,22.337,4.293v3.29H0V37.16ZM41.471,14.971h7.884v3.281H47.127V29.068H43.846V18.253H41.471Zm-13.451.02h3.027l4.689,7.463V14.9h3.281V29.026H35.99L31.3,21.564v7.5H28.02V14.991Zm-10.005-.02h7.107v3.281H21.3v2.14h3.489v3.281H21.3v2.14h3.826v3.281H18.015Zm-10.863,0H11.7a4.572,4.572,0,0,1,4.645,4.484,4.494,4.494,0,0,1-2.888,4.15l3.092,3.573-2.481,2.147L10.433,25.12v3.763H7.152Z" fill="#026936"/></svg>