<svg xmlns="http://www.w3.org/2000/svg" width="30.623" height="48" viewBox="0 0 30.623 48">
  <g id="residential-block" transform="translate(-8.357)">
    <path id="Path_19" data-name="Path 19" d="M38.98,2.27A2.232,2.232,0,0,0,36.737,0H10.557a2.195,2.195,0,0,0-2.2,2.27V48h9.989V40.445a1.3,1.3,0,0,1,1.278-1.351H27.7a1.3,1.3,0,0,1,1.287,1.351V48h9.988V2.27ZM21.822,32.447a.784.784,0,0,1-.785.785H16.307a.786.786,0,0,1-.785-.785V27.717a.786.786,0,0,1,.785-.786h4.729a.785.785,0,0,1,.785.786Zm0-10.427a.784.784,0,0,1-.785.785H16.307a.786.786,0,0,1-.785-.785V17.291a.786.786,0,0,1,.785-.785h4.729a.784.784,0,0,1,.785.785Zm0-10.642a.784.784,0,0,1-.785.785H16.307a.786.786,0,0,1-.785-.785V6.649a.786.786,0,0,1,.785-.785h4.729a.784.784,0,0,1,.785.785Zm9.992,21.069a.786.786,0,0,1-.786.785H26.3a.784.784,0,0,1-.785-.785V27.717a.785.785,0,0,1,.785-.786h4.729a.787.787,0,0,1,.786.786Zm0-10.427a.786.786,0,0,1-.786.785H26.3a.784.784,0,0,1-.785-.785V17.291a.784.784,0,0,1,.785-.785h4.729a.786.786,0,0,1,.786.785Zm0-10.642a.786.786,0,0,1-.786.785H26.3a.784.784,0,0,1-.785-.785V6.649a.784.784,0,0,1,.785-.785h4.729a.786.786,0,0,1,.786.785Z" fill="#026936"/>
  </g>
</svg>
