<svg xmlns="http://www.w3.org/2000/svg" width="14" height="13.999" viewBox="0 0 14 13.999">
  <g id="rocket" transform="translate(0 -0.001)">
    <path id="Path_210" data-name="Path 210" d="M14.235,0A10.841,10.841,0,0,0,6.413,3.6,7.4,7.4,0,0,0,1.34,5.758a.292.292,0,0,0,.163.5l2.248.322-.278.311a.291.291,0,0,0,.012.4l3.749,3.749a.292.292,0,0,0,.4.011l.311-.278.322,2.248a.29.29,0,0,0,.206.225.268.268,0,0,0,.083.013.329.329,0,0,0,.226-.094,7.387,7.387,0,0,0,2.141-5.054A10.788,10.788,0,0,0,14.52.287.293.293,0,0,0,14.235,0ZM11.547,5.037a1.458,1.458,0,1,1,0-2.063A1.454,1.454,0,0,1,11.547,5.037Z" transform="translate(-0.522 0)" fill="#fff"/>
    <path id="Path_211" data-name="Path 211" d="M1.589,16.529C.965,17.153.108,19.973.012,20.292a.292.292,0,0,0,.279.376.3.3,0,0,0,.084-.012c.319-.1,3.139-.953,3.763-1.577a1.8,1.8,0,0,0-2.55-2.55Z" transform="translate(0 -6.667)" fill="#fff" opacity="0.4"/>
  </g>
</svg>
