<svg id="search" xmlns="http://www.w3.org/2000/svg" width="20" height="20" viewBox="0 0 20 20">
  <path id="Path_18" data-name="Path 18" d="M4.43,144.95l-.7,2.6-2.543.054a10.012,10.012,0,0,1-.074-9.333h0l2.264.415.992,2.251a5.965,5.965,0,0,0,.056,4.016Z" transform="translate(0 -132.864)" fill="#fbbb00"/>
  <path id="Path_19" data-name="Path 19" d="M271.228,208.176a9.991,9.991,0,0,1-3.563,9.661h0l-2.852-.145-.4-2.52a5.957,5.957,0,0,0,2.563-3.042h-5.345v-3.954h9.6Z" transform="translate(-251.403 -200.038)" fill="#518ef8"/>
  <path id="Path_20" data-name="Path 20" d="M45.569,315.118h0a10,10,0,0,1-15.061-3.058l3.239-2.651a5.944,5.944,0,0,0,8.566,3.044Z" transform="translate(-29.318 -297.319)" fill="#28b446"/>
  <path id="Path_21" data-name="Path 21" d="M43.881,2.3,40.643,4.952a5.944,5.944,0,0,0-8.763,3.112L28.625,5.4h0A10,10,0,0,1,43.881,2.3Z" transform="translate(-27.506)" fill="#f14336"/>
</svg>
