<svg xmlns="http://www.w3.org/2000/svg" width="62.708" height="46.388" viewBox="0 0 62.708 46.388">
  <g id="sold-house" transform="translate(0 -4.996)">
    <g id="Group_583" data-name="Group 583" transform="translate(-0.001 7.337)">
      <g id="search" transform="translate(14 -2.34)">
        <path id="Path_58" data-name="Path 58" d="M36.531,46.387H12.177a5.225,5.225,0,0,1-5.219-5.219v-14.5H2.9a2.9,2.9,0,0,1-2.9-2.9,2.874,2.874,0,0,1,.942-2.125L23.152.479a1.745,1.745,0,0,1,2.4,0L31.312,5.96v-1.9a1.74,1.74,0,0,1,1.74-1.74H40.01a1.74,1.74,0,0,1,1.74,1.74V15.906L47.8,21.676a2.852,2.852,0,0,1,.912,2.1,2.9,2.9,0,0,1-2.9,2.9H41.75v14.5A5.225,5.225,0,0,1,36.531,46.387Z" transform="translate(0 0.001)" fill="#9ac3af"/>
        <path id="Path_59" data-name="Path 59" d="M24.354,0a1.74,1.74,0,0,0-1.2.48L.942,21.649A2.874,2.874,0,0,0,0,23.774a2.9,2.9,0,0,0,2.9,2.9H6.958v14.5a5.225,5.225,0,0,0,5.219,5.219H24.354Z" transform="translate(0)" fill="#9ac3af"/>
      </g>
      <path id="Union_1" data-name="Union 1" d="M-4130.145-3778.959l-.87-1.079-1.138.79a1.764,1.764,0,0,1-1.513.244,1.76,1.76,0,0,1-1.139-1.02l-.528-1.279-1.315.437a1.778,1.778,0,0,1-1.521-.188,1.774,1.774,0,0,1-.8-1.3l-.148-1.373-1.384.051a1.769,1.769,0,0,1-1.4-.609,1.769,1.769,0,0,1-.406-1.475l.247-1.362-1.342-.345a1.766,1.766,0,0,1-1.174-.98,1.765,1.765,0,0,1,.026-1.529l.623-1.24-1.194-.706a1.762,1.762,0,0,1-.851-1.271,1.758,1.758,0,0,1,.458-1.457l.945-1.014-.945-1.009a1.763,1.763,0,0,1-.458-1.459,1.768,1.768,0,0,1,.851-1.272l1.194-.706-.623-1.237a1.759,1.759,0,0,1-.026-1.528,1.771,1.771,0,0,1,1.174-.981l1.342-.342-.247-1.361a1.766,1.766,0,0,1,.406-1.475,1.793,1.793,0,0,1,1.4-.61l1.384.05.147-1.375a1.766,1.766,0,0,1,.805-1.3,1.768,1.768,0,0,1,1.521-.19l1.315.437.528-1.279a1.773,1.773,0,0,1,1.139-1.022,1.781,1.781,0,0,1,1.513.245l1.138.79.869-1.078a1.775,1.775,0,0,1,1.384-.66,1.773,1.773,0,0,1,1.379.66l.871,1.08,1.137-.792a1.781,1.781,0,0,1,1.512-.245,1.768,1.768,0,0,1,1.139,1.022l.53,1.279,1.315-.438a1.766,1.766,0,0,1,1.518.19,1.769,1.769,0,0,1,.806,1.3l.146,1.377,1.384-.051a1.786,1.786,0,0,1,1.406.61,1.774,1.774,0,0,1,.4,1.475l-.248,1.362,1.342.342a1.776,1.776,0,0,1,1.175.979,1.764,1.764,0,0,1-.025,1.528l-.623,1.24,1.193.7a1.776,1.776,0,0,1,.851,1.271,1.762,1.762,0,0,1-.458,1.458l-.943,1.009.943,1.014a1.762,1.762,0,0,1,.458,1.456,1.76,1.76,0,0,1-.851,1.272l-1.193.707.623,1.238a1.768,1.768,0,0,1,.025,1.53,1.774,1.774,0,0,1-1.175.981l-1.342.343.248,1.361a1.769,1.769,0,0,1-.4,1.476,1.784,1.784,0,0,1-1.406.611l-1.384-.053-.146,1.375a1.766,1.766,0,0,1-.806,1.3,1.761,1.761,0,0,1-1.518.19l-1.315-.437-.53,1.279a1.755,1.755,0,0,1-1.139,1.02,1.768,1.768,0,0,1-1.512-.244l-1.137-.792-.871,1.081a1.769,1.769,0,0,1-1.379.659A1.771,1.771,0,0,1-4130.145-3778.959Zm2.326-14v6.343c0,1.365.6,1.949,1.868,1.949h2.777c3.405,0,4.915-2.274,4.915-5.119s-1.509-5.121-4.915-5.121h-2.777C-4127.221-3794.9-4127.819-3794.32-4127.819-3792.955Zm-10.458-.37v6.713c0,1.365.6,1.949,1.867,1.949h4.844a1.272,1.272,0,0,0,1.41-1.321,1.273,1.273,0,0,0-1.411-1.325H-4135v-6.016a1.577,1.577,0,0,0-1.638-1.762A1.576,1.576,0,0,0-4138.278-3793.325Zm9.177-7.978a4.993,4.993,0,0,0,5.3,5.363,4.992,4.992,0,0,0,5.3-5.363,5.076,5.076,0,0,0-5.3-5.362A5.077,5.077,0,0,0-4129.1-3801.3Zm-10.133,2.9c0,.927,1.056,2.461,4.5,2.46,2.166,0,4.259-1.05,4.259-3.484,0-1.779-1.181-2.574-2.905-3.045l-1.7-.455c-.7-.184-1.1-.383-1.1-.84s.514-.68,1.069-.68c1.624,0,1.638,1.251,2.735,1.251a1.3,1.3,0,0,0,1.424-1.292c0-1.721-2.45-2.177-4.345-2.177-2.85,0-3.99,1.61-3.99,3.315,0,1.436.9,2.4,2.538,2.874l2.179.625c.6.172.9.343.9.755,0,.629-.6.854-1.268.854-1.61,0-1.751-1.5-2.92-1.5A1.3,1.3,0,0,0-4139.233-3798.4Zm14.606,11.177v-5.121h.727c1.893,0,2.363.938,2.363,2.559s-.468,2.562-2.363,2.562Zm-1.2-14.079c0-1.664.653-2.8,2.022-2.8s2.023,1.141,2.023,2.8-.655,2.8-2.023,2.8S-4125.824-3799.638-4125.824-3801.3Z" transform="translate(4146 3822.348)" fill="#026936"/>
    </g>
  </g>
</svg>
