<svg id="storage-tank" xmlns="http://www.w3.org/2000/svg" width="40" height="39.999" viewBox="0 0 40 39.999">
  <path id="Path_167" data-name="Path 167" d="M231.918,38.156H229.34a1.173,1.173,0,0,1-1.172-1.172V4.016A3.52,3.52,0,0,0,224.652.5h-5.859a3.52,3.52,0,0,0-3.516,3.516V6.224a7.105,7.105,0,0,0-5.824,6.306h14a7.045,7.045,0,0,0-5.831-6.307V4.016a1.173,1.173,0,0,1,1.172-1.172h5.859a1.173,1.173,0,0,1,1.172,1.172V36.984A3.52,3.52,0,0,0,229.34,40.5h2.578a1.172,1.172,0,0,0,0-2.344Zm0,0" transform="translate(-193.09 -0.5)" fill="#026936" opacity="0.4"/>
  <path id="Path_168" data-name="Path 168" d="M22.753,188.743l-9.784-2.878v-1.857a3.52,3.52,0,0,0-3.516-3.516H1.172a1.172,1.172,0,0,0,0,2.344H9.453a1.173,1.173,0,0,1,1.172,1.172v1.857L.841,188.743A1.171,1.171,0,0,0,0,189.867v1.328H23.594v-1.328a1.171,1.171,0,0,0-.841-1.124Zm0,0" transform="translate(0 -166.431)" fill="#026936"/>
  <path id="Path_169" data-name="Path 169" d="M0,359.21a1.172,1.172,0,0,0,1.172,1.172h21.25a1.172,1.172,0,0,0,1.172-1.172V347.492H0Zm0,0" transform="translate(0 -320.383)" fill="#026936"/>
  <path id="Path_170" data-name="Path 170" d="M209,188.095l7.086,2.084a3.535,3.535,0,0,1,2.524,3.373v15.391a3.5,3.5,0,0,1-.2,1.172h1.139a3.519,3.519,0,0,0,3.516-3.516V184.489H209Zm0,0" transform="translate(-192.672 -170.115)" fill="#026936" opacity="0.4"/>
</svg>
