<svg xmlns="http://www.w3.org/2000/svg" width="45.362" height="41.831" viewBox="0 0 45.362 41.831">
  <path id="system_1_" data-name="system (1)" d="M43.707,37.8H41V32.429a1.655,1.655,0,0,0-1.656-1.656H24.337V24.445h9.547a1.655,1.655,0,0,0,1.656-1.656V9.656A1.655,1.655,0,0,0,33.884,8H11.479A1.655,1.655,0,0,0,9.823,9.656V22.79a1.655,1.655,0,0,0,1.656,1.656h9.547v6.328H6.015A1.655,1.655,0,0,0,4.36,32.429V37.8h-2.7A1.655,1.655,0,0,0,0,39.456v8.719a1.655,1.655,0,0,0,1.656,1.656h8.719a1.655,1.655,0,0,0,1.656-1.656V39.456A1.655,1.655,0,0,0,10.375,37.8h-2.7V34.084H21.026V37.8h-2.7a1.655,1.655,0,0,0-1.656,1.656v8.719a1.655,1.655,0,0,0,1.656,1.656h8.719A1.655,1.655,0,0,0,28.7,48.175V39.456A1.655,1.655,0,0,0,27.041,37.8h-2.7V34.084H37.692V37.8h-2.7a1.655,1.655,0,0,0-1.656,1.656v8.719a1.655,1.655,0,0,0,1.656,1.656h8.719a1.655,1.655,0,0,0,1.656-1.656V39.456A1.655,1.655,0,0,0,43.707,37.8Z" transform="translate(0 -8)" fill="#026936"/>
</svg>
