<svg xmlns="http://www.w3.org/2000/svg" width="18" height="16.084" viewBox="0 0 18 16.084">
  <g id="tag" transform="translate(0 -23.224)">
    <g id="Group_817" data-name="Group 817" transform="translate(0 23.224)">
      <g id="Group_816" data-name="Group 816" transform="translate(0 0)">
        <path id="Path_174" data-name="Path 174" d="M14.037,23.224H8.512a1.32,1.32,0,0,0-.933.387L.387,30.8a1.321,1.321,0,0,0,0,1.867L5.912,38.2a1.319,1.319,0,0,0,1.866,0L14.97,31a1.323,1.323,0,0,0,.387-.934V24.544A1.319,1.319,0,0,0,14.037,23.224Zm-2.309,4.62a.99.99,0,1,1,.99-.99A.99.99,0,0,1,11.728,27.844Z" transform="translate(0 -23.224)" fill="#4d4d4d"/>
      </g>
    </g>
    <g id="Group_819" data-name="Group 819" transform="translate(9.022 24.546)">
      <g id="Group_818" data-name="Group 818">
        <path id="Path_175" data-name="Path 175" d="M226.644,55.224v6.143a1.145,1.145,0,0,1-.337.812l-7.319,7.309.112.112a1.322,1.322,0,0,0,1.869,0l6.609-6.6a1.317,1.317,0,0,0,.388-.933V56.544A1.32,1.32,0,0,0,226.644,55.224Z" transform="translate(-218.988 -55.224)" fill="#4d4d4d" opacity="0.4"/>
      </g>
    </g>
  </g>
</svg>
