<svg id="television" xmlns="http://www.w3.org/2000/svg" width="40" height="29.521" viewBox="0 0 40 29.521">
  <path id="XMLID_1672_" d="M38.641,67.065H1.359A1.359,1.359,0,0,0,0,68.425V88.691a1.359,1.359,0,0,0,1.359,1.36H38.641A1.359,1.359,0,0,0,40,88.691V68.425a1.359,1.359,0,0,0-1.359-1.36Z" transform="translate(0 -67.065)" fill="#026936"/>
  <path id="XMLID_1626_" d="M158.188,393.241h-4.612v-1.822h-6.3v1.822h-4.612a1.178,1.178,0,1,0,0,2.357h15.526a1.178,1.178,0,0,0,0-2.357Z" transform="translate(-130.425 -366.076)" fill="#026936" opacity="0.4"/>
</svg>
