<svg id="trowel" xmlns="http://www.w3.org/2000/svg" width="18" height="18" viewBox="0 0 18 18">
  <path id="Union_4" data-name="Union 4" d="M.036,16.777,2.878,6.427A.966.966,0,0,1,4.492,6l3.07,3.069L4.749,11.885a.966.966,0,0,0,1.365,1.366l2.815-2.814L7.563,9.071l2.6-2.6-.451-.446a.719.719,0,0,1,0-1.012L14.519.208a.72.72,0,0,1,1.012,0L17.792,2.47a.719.719,0,0,1,0,1.012L12.985,8.287a.715.715,0,0,1-1.012,0l-.445-.448-2.6,2.6L12,13.509a.966.966,0,0,1-.425,1.614L1.223,17.964A.963.963,0,0,1,.036,16.777Z" transform="translate(0)" fill="#4d4d4d"/>
</svg>
