<svg xmlns="http://www.w3.org/2000/svg" width="22.5" height="17.999" viewBox="0 0 22.5 17.999">
  <g id="twitter" transform="translate(0 -48)">
    <g id="Group_319" data-name="Group 319" transform="translate(0 48)">
      <path id="Path_57" data-name="Path 57" d="M22.5,50.131a9.735,9.735,0,0,1-2.658.717,4.529,4.529,0,0,0,2.029-2.51,9.307,9.307,0,0,1-2.925,1.1A4.656,4.656,0,0,0,15.577,48a4.592,4.592,0,0,0-4.5,5.578,13.125,13.125,0,0,1-9.508-4.75A4.5,4.5,0,0,0,2.984,54.9,4.61,4.61,0,0,1,.9,54.338v.05A4.581,4.581,0,0,0,4.6,58.85,4.672,4.672,0,0,1,3.386,59a4.141,4.141,0,0,1-.873-.078,4.648,4.648,0,0,0,4.31,3.164A9.361,9.361,0,0,1,1.1,64.023,8.773,8.773,0,0,1,0,63.961,13.135,13.135,0,0,0,7.076,66,12.932,12.932,0,0,0,20.2,53.076c0-.2-.007-.395-.017-.587A9.125,9.125,0,0,0,22.5,50.131Z" transform="translate(0 -48)" fill="#cecece"/>
    </g>
  </g>
</svg>
