<svg xmlns="http://www.w3.org/2000/svg" width="25.173" height="25.173" viewBox="0 0 25.173 25.173">
  <g id="wi-fi" transform="matrix(0.695, 0.719, -0.719, 0.695, 8.96, -1.785)">
    <g id="Group_726" data-name="Group 726" transform="translate(0 2.569)">
      <circle id="Ellipse_7" data-name="Ellipse 7" cx="3.037" cy="3.037" r="3.037" transform="translate(10.024 13.492)" fill="#026936"/>
      <path id="Path_101" data-name="Path 101" d="M19.379,10.512c-.045-.046-.093-.088-.139-.13l-.136-.129a.664.664,0,0,0-.076-.064,9.909,9.909,0,0,0-13.687.322l-.439.441-.608.608a1.907,1.907,0,0,0,2.7,2.7l1.049-1.049a6.121,6.121,0,0,1,8.644,0l.757.734A1.892,1.892,0,0,0,20.662,12.6a1.857,1.857,0,0,0-.55-1.331Z" transform="translate(0.942 -1.301)" fill="#026936"/>
      <path id="Path_102" data-name="Path 102" d="M25.5,8.025l-.631-.631s0-.006-.009-.008l-.5-.5a1.8,1.8,0,0,0-.283-.227,16.536,16.536,0,0,0-22.336.515c-.03.028-.064.046-.094.076L.5,8.391a1.739,1.739,0,0,0,2.46,2.459L4.1,9.712a.148.148,0,0,1,.021-.025,13.054,13.054,0,0,1,18.014-.1l.9.9A1.739,1.739,0,0,0,25.5,8.025Z" transform="translate(0 -2.569)" fill="#99c3ae"/>
    </g>
  </g>
</svg>
