<svg id="XMLID_358_" xmlns="http://www.w3.org/2000/svg" width="40" height="31.267" viewBox="0 0 40 31.267">
  <path id="XMLID_362_" d="M199.447,343.842a3.918,3.918,0,1,0,5.542,0A3.919,3.919,0,0,0,199.447,343.842Z" transform="translate(-182.217 -319.262)" fill="#026936"/>
  <path id="XMLID_361_" d="M141.795,241.383a12,12,0,0,0-8.546,3.541,2.293,2.293,0,0,0,3.243,3.243,7.5,7.5,0,0,1,10.607,0,2.293,2.293,0,0,0,3.243-3.243A12,12,0,0,0,141.795,241.383Z" transform="translate(-121.794 -226.173)" fill="#026936"/>
  <path id="XMLID_360_" d="M81,147.743A19.692,19.692,0,0,0,67.031,153.5a2.283,2.283,0,0,0,0,3.243,2.317,2.317,0,0,0,3.263,0,15.211,15.211,0,0,1,21.419,0,2.317,2.317,0,0,0,3.263,0,2.283,2.283,0,0,0,0-3.243A19.689,19.689,0,0,0,81,147.743Z" transform="translate(-61.004 -140.125)" fill="#026936"/>
  <path id="XMLID_359_" d="M39.327,61.866a27.416,27.416,0,0,0-38.652,0,2.3,2.3,0,0,0,3.258,3.243,22.793,22.793,0,0,1,32.135,0,2.312,2.312,0,0,0,3.258,0A2.289,2.289,0,0,0,39.327,61.866Z" transform="translate(0 -53.896)" fill="#026936" opacity="0.4"/>
</svg>
