<svg xmlns="http://www.w3.org/2000/svg" width="18.091" height="12.667" viewBox="0 0 18.091 12.667">
  <path id="youtube" d="M17.719-4.1a2.266,2.266,0,0,0-1.594-1.595,52.953,52.953,0,0,0-7.078-.387,55.015,55.015,0,0,0-7.078.373A2.312,2.312,0,0,0,.373-4.1,23.881,23.881,0,0,0,0,.251,23.793,23.793,0,0,0,.373,4.6,2.267,2.267,0,0,0,1.968,6.2a53.049,53.049,0,0,0,7.078.387,55.015,55.015,0,0,0,7.078-.373,2.267,2.267,0,0,0,1.595-1.594A23.889,23.889,0,0,0,18.091.266,22.669,22.669,0,0,0,17.719-4.1ZM7.243,2.963V-2.461L11.952.251Zm0,0" transform="translate(-0.001 6.082)" fill="#cecece"/>
</svg>
